<?xml version="1.0" encoding="UTF-8" standalone="no"?>
<svg
   xmlns:dc="http://purl.org/dc/elements/1.1/"
   xmlns:cc="http://creativecommons.org/ns#"
   xmlns:rdf="http://www.w3.org/1999/02/22-rdf-syntax-ns#"
   xmlns:svg="http://www.w3.org/2000/svg"
   xmlns="http://www.w3.org/2000/svg"
   xmlns:sodipodi="http://sodipodi.sourceforge.net/DTD/sodipodi-0.dtd"
   xmlns:inkscape="http://www.inkscape.org/namespaces/inkscape"
   version="1.1"
   viewBox="0 -146 1024 1024"
   id="svg3433"
   inkscape:version="0.91 r13725"
   sodipodi:docname="forest.svg"
   inkscape:export-filename="/Users/aaron/Documents/summer-2015/arc/hdm-vector-tile/hdm-style.tm2/img/forest-high.png"
   inkscape:export-xdpi="17.578125"
   inkscape:export-ydpi="17.578125">
  <metadata
     id="metadata3443">
    <rdf:RDF>
      <cc:Work
         rdf:about="">
        <dc:format>image/svg+xml</dc:format>
        <dc:type
           rdf:resource="http://purl.org/dc/dcmitype/StillImage" />
        <dc:title></dc:title>
      </cc:Work>
    </rdf:RDF>
  </metadata>
  <defs
     id="defs3441" />
  <sodipodi:namedview
     pagecolor="#ffffff"
     bordercolor="#666666"
     borderopacity="1"
     objecttolerance="10"
     gridtolerance="10"
     guidetolerance="10"
     inkscape:pageopacity="0"
     inkscape:pageshadow="2"
     inkscape:window-width="1243"
     inkscape:window-height="755"
     id="namedview3439"
     showgrid="false"
     inkscape:zoom="0.73242188"
     inkscape:cx="512"
     inkscape:cy="242.16521"
     inkscape:window-x="0"
     inkscape:window-y="0"
     inkscape:window-maximized="1"
     inkscape:current-layer="svg3433"
     showguides="true"
     inkscape:guide-bbox="true">
    <inkscape:grid
       type="xygrid"
       id="grid4165" />
    <sodipodi:guide
       position="150.73438,-0.1484375"
       orientation="1,0"
       id="guide4651" />
    <sodipodi:guide
       position="-0.14453125,695.57813"
       orientation="0,1"
       id="guide4653" />
  </sodipodi:namedview>
  <g
     transform="matrix(1,0,0,-1,92.484375,785)"
     id="g3435">
    <g
       id="g4142" />
  </g>
  <g
     inkscape:groupmode="layer"
     id="layer1"
     inkscape:label="droplet" />
  <path
     style="fill:#425a30;fill-opacity:1;fill-rule:evenodd;stroke:#80aa60;stroke-width:0;stroke-linecap:butt;stroke-linejoin:miter;stroke-miterlimit:4;stroke-dasharray:none;stroke-opacity:1"
     d="m 569.8069,871.7369 -12.49617,-153.72303 24.99232,10.98023 49.9846,0 -74.97692,-21.96043 62.48078,0 -12.49617,-21.96044 37.48846,0 -36.1462,-14.4788 23.71785,-4.06646 -34.13056,-20.33227 c 0,0 14.4621,-10.67443 19.08998,-10.67443 4.62787,0 19.66844,0.50832 19.66844,0.50832 l -39.33689,-23.3821 20.82541,-1.52493 -39.91539,-24.90702 43.96477,3.55814 -46.27869,-22.3655 34.13055,2.54155 -38.75843,-14.2326 51.48506,-11.69106 -47.43565,-16.77411 -5.78486,-6.60799 35.866,2.03323 -22.56087,-13.72429 -13.30513,-5.08306 31.81661,-4.06645 -10.41271,-7.11629 -14.4621,-6.09968 -16.19754,-2.54153 32.39508,-1.52491 -16.77601,-6.608 -11.56968,-7.11629 12.72663,-0.5083 -11.56966,-9.65784 9.83424,-11.18274 -2.89244,-8.6412 -8.09877,-16.26581 -4.04939,-13.72428 -5.78483,-3.04984 -2.89241,17.79072 -6.36333,12.19937 -7.5203,13.21596 -7.52027,9.14953 18.51146,2.03321 -6.94178,7.62461 -6.94182,5.08307 12.72665,2.03323 -19.08998,9.14951 13.30515,1.01662 -10.41271,8.1329 -8.67727,2.54153 -8.67726,7.11629 13.88362,1.01661 10.41271,1.01663 -15.61907,6.60798 12.72663,2.03323 -23.13934,9.14951 -9.83422,12.19937 16.19755,1.52492 -21.40391,11.18275 6.94181,3.04982 10.99119,7.62461 16.19756,2.54152 -24.87481,10.16614 -8.67725,6.60798 15.04057,1.52491 19.08996,2.54154 -39.91538,12.19937 -17.93299,8.64122 12.72663,7.11629 27.18874,2.54154 16.19756,5.08306 -17.35452,11.18274 -30.65964,10.16613 0,6.608 17.3545,0.5083 21.98239,2.03321 10.41271,2.03323 -15.61906,9.14954 -18.51147,6.09966 -14.4621,8.64123 24.29632,-0.50831 23.71784,0 -2.89244,7.11629 -15.04057,2.54153 -22.56088,5.59138 -24.87478,10.16612 -13.30513,7.11628 21.98237,-1.0166 13.30513,1.52492 21.98239,-4.06646 18.51147,-7.11629 2.31394,5.08307 -12.72663,8.13291 -19.08996,9.14951 -6.94182,11.18275 0,7.6246 24.29632,-8.13291 15.04059,-7.6246 7.52027,5.08306 7.5203,5.08308 1.15697,128.60157 -9.25574,5.59137 -1.73547,6.09966 z"
     id="path4579"
     inkscape:connector-curvature="0" />
  <path
     inkscape:connector-curvature="0"
     id="path4583"
     d="m 780.4676,539.7008 -18.53063,-206.46215 37.06127,14.7473 74.12253,0 -111.1838,-29.4946 92.65316,0 -18.53062,-29.49459 55.59189,0 -53.60144,-19.44617 35.17134,-5.46158 -50.61243,-27.30784 c 0,0 21.44593,-14.33659 28.30865,-14.33659 6.86268,0 29.16647,0.68268 29.16647,0.68268 l -58.33295,-31.40399 30.88216,-2.0481 -59.19081,-33.45207 65.19565,4.77885 -68.62698,-30.03862 50.61241,3.41349 -57.47513,-19.11547 76.34754,-15.702017 -70.34267,-22.528964 -8.57838,-8.87504 53.18594,2.73077 -33.45567,-18.43278 -19.73027,-6.82696 47.18107,-5.46158 -15.44109,-9.55772 -21.44592,-8.19237 -24.01947,-3.41347 48.03891,-2.04808 -24.87727,-8.87504 -17.15677,-9.55775 18.87241,-0.68271 -17.15673,-12.97121 14.58324,-15.01933 -4.28919,-11.60583 -12.00973,-21.846243 -6.00487,-18.432783 -8.57836,-4.096188 -4.28919,23.894362 -9.43624,16.384712 -11.15187,17.75007 -11.15187,12.28852 27.45079,2.73079 -10.29405,10.24043 -10.29406,6.82697 18.87243,2.7308 -28.30863,12.28851 19.73026,1.3654 -15.44106,10.92312 -12.8676,3.41349 -12.86755,9.55774 20.58811,1.36539 15.44107,1.36539 -23.16163,8.87505 18.87243,2.73078 -34.31349,12.28852 -14.58324,16.384714 24.01945,2.04809 -31.73998,15.019297 10.29404,4.09618 16.29892,10.24043 24.01947,3.41348 -36.88702,13.65393 -12.86757,8.87504 22.30376,2.04807 28.30866,3.41348 -59.19082,16.38472 -26.59295,11.60583 18.87243,9.55773 40.31836,3.41347 24.01947,6.82696 -25.73515,15.01931 -45.46539,13.65392 0,8.87506 25.73512,0.68268 32.59782,2.73078 15.44111,2.73079 -23.16162,12.28852 -27.4508,8.19235 -21.44595,11.60584 36.02918,-0.6827 35.17136,0 -4.2892,9.55774 -22.30378,3.41348 -33.45567,7.50965 -36.88701,13.65393 -19.73027,9.55772 32.59784,-1.36539 19.73026,2.0481 32.59782,-5.46156 27.45081,-9.55776 3.43134,6.82698 -18.87242,10.92311 -28.30865,12.28854 -10.29406,15.0193 0,10.24044 36.0292,-10.92312 22.30379,-10.24043 11.15187,6.82694 11.15188,6.82696 1.71568,172.72205 -13.7254,7.50964 -2.57352,8.19236 z"
     style="fill:#425a30;fill-opacity:1;fill-rule:evenodd;stroke:#80aa60;stroke-width:0;stroke-linecap:butt;stroke-linejoin:miter;stroke-miterlimit:4;stroke-dasharray:none;stroke-opacity:1" />
  <path
     style="fill:#425a30;fill-opacity:1;fill-rule:evenodd;stroke:#80aa60;stroke-width:0;stroke-linecap:butt;stroke-linejoin:miter;stroke-miterlimit:4;stroke-dasharray:none;stroke-opacity:1"
     d="m 150.73761,-145.99991 -94.916016,0 -29.900391,16.5469 c 0,0 16.901473,-0.5332 22.101563,-0.5332 5.20011,0 21.449219,11.166 21.449219,11.166 l -38.34961,21.2695 26.650391,4.2539 -40.617187,15.1465 42.125,0 -14.041016,22.9727 70.205077,0 -84.246093,22.9707 56.164063,0 28.08203,-11.4864 -14.04101,160.8067 36.9707,-0.9102 -1.95117,-6.3808 -10.4004,-5.8496 1.30079,-134.5254 8.44921,-5.3184 8.45118,-5.3164 16.90039,7.9766 27.30078,8.5058 0,-7.9746 -7.80078,-11.6992 -21.45117,-9.5703 -14.29883,-8.5078 2.59961,-5.3164 20.80078,7.4433 24.69922,4.2539 14.95117,-1.5957 24.70117,1.0645 -14.95117,-7.4453 -27.95117,-10.6328 -25.34961,-5.8497 -16.90039,-2.6582 -3.25,-7.4453 26.65039,0 27.30078,0.5332 -16.25,-9.041 -20.80078,-6.3789 -17.55078,-9.5723 11.70117,-2.1269 24.69922,-2.127 19.5,-0.5312 0,-6.9121 -34.44922,-10.6348 -14.28711,-8.5703 z"
     id="path4642"
     inkscape:connector-curvature="0" />
  <path
     style="fill:#425a30;fill-opacity:1;fill-rule:evenodd;stroke:#80aa60;stroke-width:0;stroke-linecap:butt;stroke-linejoin:miter;stroke-miterlimit:4;stroke-dasharray:none;stroke-opacity:1"
     d="m 118.21125,653.67383 -6.5,3.1914 -4.55079,14.35547 -9.099605,17.01563 -3.25,9.03906 11.048825,11.69922 -12.999997,10.10156 14.300777,0.53125 -12.999995,7.44531 -18.851563,6.91211 36.402348,1.59571 -18.201176,2.6582 -16.25,6.38086 -11.701172,7.44336 35.751948,4.25391 -14.951167,5.31835 -25.349609,14.35547 40.300776,-2.12695 -6.499995,6.91211 -53.302734,17.54687 57.851562,12.23047 -43.550781,14.88868 38.351563,-2.65821 -52.001954,23.39453 49.402344,-3.7207 -44.851562,26.0547 23.40039,1.5937 -14.300781,7.9141 94.916018,0 -5.21289,-3.127 18.19922,-5.3183 30.55078,-2.6582 14.30078,-7.4453 -20.15039,-9.03909 -44.85156,-12.75977 21.45117,-2.66015 16.90039,-1.59375 -9.75,-6.91406 -27.95117,-10.63282 18.19922,-2.66015 12.35156,-7.97461 7.80078,-3.19141 -24.05078,-11.69727 18.19922,-1.5957 -11.04883,-12.76172 -26.00195,-9.57031 14.30078,-2.12695 -17.55078,-6.91211 11.70117,-1.06445 15.59961,-1.0625 -9.75,-7.44532 -9.75,-2.6582 -11.70118,-8.50781 14.95118,-1.0625 -21.45118,-9.57227 14.30079,-2.12695 -7.80079,-5.31641 -7.79882,-7.97656 20.80078,-2.12695 -8.45117,-9.57032 -8.44922,-13.82421 -7.15039,-12.76172 -3.25,-18.61133 z"
     id="path4610"
     inkscape:connector-curvature="0" />
  <path
     inkscape:connector-curvature="0"
     id="path4614"
     d="m 897.11585,771.8295 -8.07263,-90.0415 16.14525,6.43153 32.29046,0 -48.43571,-12.86307 40.3631,0 -8.07261,-12.86307 24.21786,0 -23.35075,-8.4808 15.32192,-2.38189 -22.04862,-11.90938 c 0,0 9.34264,-6.25243 12.33229,-6.25243 2.98963,0 12.70597,0.29774 12.70597,0.29774 l -25.41196,-13.6958 13.45338,-0.89321 -25.78567,-14.58901 28.40161,2.08415 -29.89643,-13.10033 22.04865,1.48868 -25.0383,-8.33658 33.25979,-6.8479 -30.64383,-9.82525 -3.73706,-3.87055 23.16974,1.19094 -14.57452,-8.03885 -8.59522,-2.97734 20.55378,-2.38189 -6.72669,-4.16828 -9.34264,-3.57281 -10.46374,-1.48868 20.9275,-0.8932 -10.83746,-3.87055 -7.4741,-4.16829 8.22151,-0.29774 -7.4741,-5.65696 6.353,-6.55017 -1.86853,-5.06148 -5.23188,-9.52752 -2.61594,-8.03884 -3.73705,-1.78641 -1.86853,10.42072 -4.11076,7.14564 -4.85818,7.7411 -4.85815,5.35923 11.95856,1.19093 -4.48445,4.46602 -4.48447,2.97736 8.22151,1.19094 -12.33229,5.35922 8.59525,0.59547 -6.7267,4.76376 -5.6056,1.48867 -5.60557,4.16828 8.96892,0.59548 6.7267,0.59547 -10.09005,3.87056 8.22152,1.19094 -14.94821,5.35922 -6.35299,7.14564 10.46376,0.89321 -13.82711,6.55016 4.48446,1.7864 7.10041,4.46603 10.46376,1.48866 -16.06934,5.95471 -5.60557,3.87054 9.71633,0.8932 12.33227,1.48868 -25.78567,7.14564 -11.58486,5.06149 8.22152,4.1683 17.56415,1.48866 10.46376,2.97735 -11.21117,6.55017 -19.8064,5.95469 0,3.87055 11.21115,0.29775 14.20083,1.19092 6.72669,1.19094 -10.09004,5.35923 -11.95856,3.57282 -9.34264,5.0615 15.69562,-0.29774 15.32193,0 -1.86855,4.16828 -9.71633,1.48868 -14.5745,3.27509 -16.06934,5.95469 -8.59523,4.16828 14.20081,-0.59547 8.59522,0.8932 14.20081,-2.38188 11.95856,-4.16828 1.49484,2.97736 -8.22152,4.76375 -12.33227,5.35922 -4.48448,6.55018 0,4.46601 15.69563,-4.76376 9.71635,-4.46602 4.85817,2.97734 4.85816,2.97735 0.74741,75.32691 -5.97929,3.27508 -1.12112,3.57281 z"
     style="fill:#425a30;fill-opacity:1;fill-rule:evenodd;stroke:#80aa60;stroke-width:0;stroke-linecap:butt;stroke-linejoin:miter;stroke-miterlimit:4;stroke-dasharray:none;stroke-opacity:1" />
  <path
     style="fill:#425a30;fill-opacity:1;fill-rule:evenodd;stroke:#80aa60;stroke-width:0;stroke-linecap:butt;stroke-linejoin:miter;stroke-miterlimit:4;stroke-dasharray:none;stroke-opacity:1"
     d="m 401.88783,488.81823 -17.84801,-158.94687 35.69604,11.35335 71.39211,0 -107.08815,-22.70669 89.24011,0 -17.84802,-22.70669 53.54407,0 -51.62694,-14.97082 33.87575,-4.20465 -48.74804,-21.02321 c 0,0 20.65594,-11.03716 27.26585,-11.03716 6.60988,0 28.09207,0.52557 28.09207,0.52557 l -56.18413,-24.17666 29.74454,-1.57675 -57.0104,-25.75341 62.79404,3.67905 -66.09897,-23.12552 48.748,2.62791 -55.35792,-14.71623 73.53514,-12.08835 -67.75147,-17.34414 -8.26238,-6.83253 51.22674,2.10231 -32.22327,-14.19066 -19.00347,-5.2558 45.44306,-4.20465 -14.87229,-7.358105 -20.65591,-6.306968 -23.13467,-2.627898 46.26931,-1.57673 -23.96087,-6.832537 -16.52477,-7.358128 18.17721,-0.525591 -16.52473,-9.986005 14.04604,-11.562778 -4.13119,-8.934856 -11.56733,-16.818545 -5.78367,-14.190662 -8.26237,-3.1534905 -4.13119,18.3953105 -9.08863,12.61393 -10.74107,13.665064 -10.74108,9.460437 26.4396,2.102319 -9.91485,7.883698 -9.91486,5.255808 18.17722,2.10233 -27.26583,9.460426 19.00347,1.051169 -14.87227,8.409267 -12.39359,2.627905 -12.39356,7.35812 19.82971,1.05116 14.87228,1.05116 -22.30843,6.83254 18.17723,2.10232 -33.0495,9.46044 -14.04603,12.61392 23.13464,1.57674 -30.57078,11.56276 9.91485,3.15348 15.69851,7.88369 23.13467,2.6279 -35.52822,10.51161 -12.39357,6.83254 21.48216,1.57673 27.26586,2.62789 -57.01041,12.61394 -25.61336,8.93486 18.17723,7.35811 38.83316,2.6279 23.13467,5.2558 -24.78715,11.56275 -43.79059,10.51161 0,6.83255 24.78712,0.52556 31.39703,2.10232 14.8723,2.10232 -22.30842,9.46044 -26.4396,6.30696 -20.65595,8.93487 34.70199,-0.52558 33.87575,0 -4.1312,7.35811 -21.48217,2.6279 -32.22328,5.78138 -35.52822,10.51161 -19.00346,7.3581 31.39703,-1.05115 19.00347,1.57675 31.39703,-4.20465 26.4396,-7.35812 3.30495,5.25581 -18.17723,8.40926 -27.26584,9.46045 -9.91486,11.56276 0,7.8837 34.70199,-8.40928 21.48219,-7.8837 10.74108,5.25579 10.74107,5.2558 1.65248,132.97174 -13.21979,5.78137 -2.47872,6.30696 z"
     id="path4618"
     inkscape:connector-curvature="0" />
  <path
     style="fill:#425a30;fill-opacity:1;fill-rule:evenodd;stroke:#80aa60;stroke-width:0;stroke-linecap:butt;stroke-linejoin:miter;stroke-miterlimit:4;stroke-dasharray:none;stroke-opacity:1"
     d="m 541.35611,116.34239 9.71725,-81.49726 -19.43451,5.82123 -38.86895,0 58.30346,-11.64246 -48.58623,0 9.71723,-11.642476 -29.15174,0 28.10797,-7.6760378 -18.44344,-2.15586 26.54057,-10.779275 c 0,0 -11.24601,-5.659123 -14.84474,-5.659123 -3.5987,0 -15.29454,0.269487 -15.29454,0.269487 l 30.58911,-12.3961742 -16.19422,-0.808452 31.03896,-13.204625 -34.18785,1.88638 35.98721,-11.85721 -26.5406,1.347416 30.13932,-7.545503 -40.03577,-6.198087 36.88687,-8.892909 4.49841,-3.503264 -27.89009,1.077929 17.54377,-7.276026 10.34632,-2.694812 -24.74119,-2.155868 8.09711,-3.772742 11.24601,-3.233778 12.59551,-1.347416 -25.19104,-0.808443 13.04537,-3.503264 8.99679,-3.772747 -9.89647,-0.269495 8.99679,-5.120145 -7.64729,-5.92862 2.2492,-4.58118 6.29777,-8.62344 3.14888,-7.27601 4.4984,-1.61689 2.2492,9.43187 4.94824,6.46758 5.84793,7.00653 5.8479,4.85067 -14.39487,1.07793 5.39807,4.042221 5.39809,2.694839 -9.89648,1.077924 14.84474,4.85067 -10.34635,0.538964 8.09712,4.311716 6.74763,1.347407 6.74758,3.772743 -10.79615,0.538974 -8.09712,0.538964 12.14569,3.503274 -9.89649,1.077928 17.9936,4.850672 7.64728,6.467574 -12.59553,0.80845 16.64409,5.9286 -5.39808,1.616884 -8.54696,4.042239 -12.59554,1.347399 19.34313,5.389652 6.74759,3.503256 -11.69583,0.808443 -14.84471,1.347416 31.03896,6.467573 13.94504,4.581194 -9.89649,3.77276 -21.14248,1.347398 -12.59553,2.694822 13.49521,5.92861 23.84154,5.3896362 0,3.503264 -13.49519,0.269496 -17.09395,1.07791 -8.09711,1.077929 12.14568,4.850679 14.39486,3.233785 11.24601,4.5812028 -18.89327,-0.269483 -18.44346,0 2.24923,3.772741 11.69583,1.347419 17.54375,2.964311 19.34313,5.389638 10.34633,3.772736 -17.09393,-0.538958 -10.34631,0.808438 -17.09393,-2.155857 -14.39487,-3.772735 -1.79938,2.694822 9.89648,4.31171 14.84471,4.85068 5.3981,5.92861 0,4.04223 -18.89328,-4.31173 -11.69586,-4.04223 -5.84792,2.69482 -5.84791,2.69482 -0.89968,68.17898 7.19745,2.96429 1.34952,3.23377 z"
     id="path4620"
     inkscape:connector-curvature="0" />
  <path
     style="fill:#425a30;fill-opacity:1;fill-rule:evenodd;stroke:#80aa60;stroke-width:0;stroke-linecap:butt;stroke-linejoin:miter;stroke-miterlimit:4;stroke-dasharray:none;stroke-opacity:1"
     d="m 951.79919,206.47265 -6.53676,-64.988 13.07351,4.642 26.14696,0 -39.22047,-9.284 32.68375,0 -6.53674,-9.284 19.61026,0 -18.90812,-6.12107 12.40682,-1.71914 -17.85372,-8.59567 c 0,0 7.56514,-4.51273 9.98599,-4.51273 2.42083,0 10.28853,0.2149 10.28853,0.2149 l -20.57713,-9.885028 10.89379,-0.644679 -20.87978,-10.529705 22.99802,1.504248 -24.20844,-9.455242 17.85375,1.074464 -20.2746,-6.016977 26.9319,-4.942513 -24.81364,-7.091433 -3.02606,-2.793592 18.76154,0.859568 -11.80162,-5.802089 -6.95992,-2.148913 16.64329,-1.719143 -5.44689,-3.008481 -7.56514,-2.578697 -8.47295,-1.074464 16.94591,-0.644672 -8.77557,-2.793593 -6.0521,-3.008488 6.65731,-0.214896 -6.0521,-4.082945 5.1443,-4.727624 -1.51303,-3.653154 -4.23648,-6.876545 -2.11824,-5.802081 -3.02605,-1.2893524 -1.51303,7.5212174 -3.32866,5.157409 -3.93388,5.587185 -3.93385,3.868057 9.68336,0.859561 -3.63125,3.223376 -3.63127,2.148928 6.65731,0.859568 -9.98599,3.868049 6.95995,0.429784 -5.4469,3.438273 -4.5391,1.074456 -4.53907,3.008481 7.26252,0.429791 5.4469,0.429784 -8.17035,2.7936 6.65732,0.859569 -12.10421,3.868049 -5.1443,5.157408 8.47296,0.64468 -11.19641,4.727617 3.63127,1.289345 5.74951,3.223384 8.47296,1.074449 -13.01205,4.297848 -4.53907,2.793585 7.86773,0.644673 9.98598,1.074464 -20.87978,5.157408 -9.38076,3.653161 6.65732,3.008495 14.22246,1.074449 8.47296,2.14892 -9.07818,4.727623 -16.0381,4.29783 0,2.7936 9.07816,0.2149 11.49903,0.85955 5.44689,0.85957 -8.17034,3.86806 -9.68337,2.5787 -7.56514,3.65317 12.70942,-0.21489 12.40684,0 -1.51305,3.00848 -7.86773,1.07446 -11.80161,2.36382 -13.01204,4.29783 -6.95993,3.00848 11.49901,-0.42978 6.95992,0.64467 11.49902,-1.71914 9.68336,-3.00848 1.21044,2.14893 -6.65732,3.43826 -9.98598,3.86805 -3.63128,4.72764 0,3.22336 12.70944,-3.43827 7.86775,-3.22337 3.93387,2.14891 3.93386,2.14892 0.60521,54.36765 -4.84169,2.36381 -0.90782,2.5787 z"
     id="path4622"
     inkscape:connector-curvature="0" />
  <path
     style="fill:#425a30;fill-opacity:1;fill-rule:evenodd;stroke:#80aa60;stroke-width:0;stroke-linecap:butt;stroke-linejoin:miter;stroke-miterlimit:4;stroke-dasharray:none;stroke-opacity:1"
     d="m 255.75786,712.89327 9.11529,-82.64587 -18.23057,5.90329 -36.46109,0 54.69166,-11.80656 -45.57639,0 9.11527,-11.80655 -27.34584,0 26.36673,-7.78423 -17.3009,-2.18625 24.89642,-10.93119 c 0,0 -10.54934,-5.73888 -13.92513,-5.73888 -3.37577,0 -14.34707,0.27329 -14.34707,0.27329 l 28.69416,-12.57088 -15.19101,-0.81985 29.11614,-13.39072 -32.06996,1.91297 33.75786,-12.02432 -24.89645,1.3664 28.27223,-7.65185 -37.55561,-6.28544 34.60178,-9.01824 4.21974,-3.55265 -26.16234,1.09313 16.45696,-7.37857 9.70538,-2.7328 -23.20851,-2.18625 7.59552,-3.82591 10.54932,-3.27937 11.81524,-1.3664 -23.63049,-0.81983 12.23723,-3.55264 8.43945,-3.82592 -9.2834,-0.27329 8.43945,-5.19232 -7.17355,-6.01216 2.10987,-4.64575 5.90763,-8.74498 2.95381,-7.37856 4.21973,-1.63968 2.10987,9.56481 4.6417,6.55872 5.48566,7.10528 5.48563,4.91905 -13.50312,1.09311 5.06366,4.0992 5.06368,2.73281 -9.2834,1.09312 13.92513,4.91903 -9.70541,0.54656 7.59551,4.37249 6.32963,1.36639 6.32958,3.82592 -10.12735,0.54657 -7.59551,0.54656 11.39328,3.55264 -9.28342,1.09312 16.87892,4.91905 7.17355,6.55872 -11.81526,0.81984 15.61301,6.01217 -5.06367,1.63966 -8.01749,4.09922 -11.81527,1.36637 18.14486,5.46563 6.32958,3.55263 -10.97129,0.81983 -13.9251,1.36641 29.11614,6.55872 13.08117,4.64576 -9.28342,3.82593 -19.83273,1.3664 -11.81526,2.73279 12.6592,6.01217 22.36459,5.46559 0,3.55265 -12.65918,0.2733 -16.035,1.09309 -7.59551,1.09313 11.39327,4.91904 13.50312,3.27937 10.54934,4.64575 -17.72286,-0.27328 -17.30092,0 2.1099,3.82591 10.97129,1.36641 16.45694,3.0061 18.14485,5.46559 9.70539,3.82592 -16.03499,-0.54656 -9.70537,0.81984 -16.03498,-2.18624 -13.50313,-3.82592 -1.68791,2.73281 9.2834,4.37247 13.92511,4.91904 5.06369,6.01216 0,4.0992 -17.72287,-4.37248 -10.97132,-4.0992 -5.48565,2.73279 -5.48564,2.7328 -0.84394,69.13987 6.75158,3.00607 1.26592,3.27936 z"
     id="path4624"
     inkscape:connector-curvature="0" />
  <path
     style="fill:#425a30;fill-opacity:1;fill-rule:evenodd;stroke:#80aa60;stroke-width:0;stroke-linecap:butt;stroke-linejoin:miter;stroke-miterlimit:4;stroke-dasharray:none;stroke-opacity:1"
     d="m 1023.9998,182.42437 -1.4687,-0.40234 -4.2246,13.52344 -9.2969,9.27148 -10.98636,10.04687 -10.98437,6.95508 27.04103,1.54492 -10.1406,5.79493 -10.14067,3.86328 18.59187,1.54687 -27.88678,6.95313 19.43558,0.77344 -15.21097,6.18164 -12.67579,1.93164 -12.67578,5.41015 20.28125,0.77149 15.21095,0.77343 -22.81642,5.02344 18.59181,1.54492 -33.80274,6.95508 -14.36718,9.27149 23.66211,1.16015 -31.26758,8.5 10.14062,2.31836 16.05664,5.79492 23.66211,1.93164 -36.33789,7.72852 -12.67578,5.02148 21.9707,1.16016 27.88868,1.93164 -58.31055,9.27149 -26.19726,6.56836 18.59178,5.41015 39.71875,1.93164 23.66211,3.86328 -25.35352,8.5 -44.7871,7.72852 0,5.02148 25.35156,0.38672 32.11328,1.54492 15.21094,1.54688 -22.81836,6.95312 -27.04102,4.63672 -21.12694,6.56836 35.49217,-0.38672 34.64845,0 -4.22461,5.41016 -21.97266,1.93164 -32.95703,4.25 -36.33789,7.72656 -19.4375,5.41016 32.11328,-0.77344 19.43554,1.16016 32.11328,-3.0918 27.04297,-5.4082 3.37891,3.86328 -18.5918,6.18164 -27.88672,6.95508 -10.14062,8.5 0,5.79492 35.49219,-6.18164 21.97266,-5.79492 10.98632,3.86328 10.98635,3.86328 1.6895,97.75 -13.52155,4.25 -2.53516,4.63672 27.66601,0.38086 0,-353.50391 z"
     id="path4649"
     inkscape:connector-curvature="0" />
  <path
     style="fill:#425a30;fill-opacity:1;fill-rule:evenodd;stroke:#80aa60;stroke-width:0;stroke-linecap:butt;stroke-linejoin:miter;stroke-miterlimit:4;stroke-dasharray:none;stroke-opacity:1"
     d="m 0,182.42242 0,353.50391 20.398438,0.28125 -12.7871099,-109.81445 31.0410159,1.31445 73.019536,0 -89.216802,-17.47461 70.960938,0.78125 -18.253907,-16.69141 54.763671,0 -52.802733,-11.00586 34.648433,-3.08984 -49.859371,-15.45508 c 0,0 21.126139,-8.11328 27.886719,-8.11328 6.76053,0 28.732422,0.38477 28.732422,0.38477 l -57.464844,-17.77149 30.421875,-1.16016 -58.308593,-18.93164 64.224609,2.70508 -67.605469,-17 49.859375,1.93164 -56.619141,-10.81836 75.210938,-8.88672 -69.296875,-12.75 -8.449219,-5.02343 52.394532,1.54687 -32.958985,-10.43164 -19.435547,-3.86523 46.478516,-3.08985 -15.210938,-5.41015 -21.126953,-4.63672 -15.849609,-1.15039 39.511719,-1.93946 -24.507813,-5.02343 -16.90039,-5.40821 18.589843,-0.38671 -16.90039,-7.3418 14.365234,-8.5 -4.224609,-6.56836 L 12.898438,194.77008 6.9824219,184.33844 0,182.42242 Z"
     id="path4644"
     inkscape:connector-curvature="0" />
</svg>
