<?xml version="1.0" encoding="UTF-8" standalone="no"?>
<!-- Created with Inkscape (http://www.inkscape.org/) -->

<svg
   xmlns:dc="http://purl.org/dc/elements/1.1/"
   xmlns:cc="http://creativecommons.org/ns#"
   xmlns:rdf="http://www.w3.org/1999/02/22-rdf-syntax-ns#"
   xmlns:svg="http://www.w3.org/2000/svg"
   xmlns="http://www.w3.org/2000/svg"
   xmlns:sodipodi="http://sodipodi.sourceforge.net/DTD/sodipodi-0.dtd"
   xmlns:inkscape="http://www.inkscape.org/namespaces/inkscape"
   version="1.1"
   width="12"
   height="12"
   id="svg4764"
   inkscape:version="0.91 r13725"
   sodipodi:docname="pharmacy.svg">
  <sodipodi:namedview
     pagecolor="#ffffff"
     bordercolor="#666666"
     borderopacity="1"
     objecttolerance="10"
     gridtolerance="10"
     guidetolerance="10"
     inkscape:pageopacity="0"
     inkscape:pageshadow="2"
     inkscape:window-width="1220"
     inkscape:window-height="755"
     id="namedview11"
     showgrid="false"
     inkscape:zoom="27.812867"
     inkscape:cx="0.94996887"
     inkscape:cy="8.1530415"
     inkscape:window-x="0"
     inkscape:window-y="0"
     inkscape:window-maximized="0"
     inkscape:current-layer="svg4764" />
  <defs
     id="defs4766" />
  <metadata
     id="metadata4769">
    <rdf:RDF>
      <cc:Work
         rdf:about="">
        <dc:format>image/svg+xml</dc:format>
        <dc:type
           rdf:resource="http://purl.org/dc/dcmitype/StillImage" />
        <dc:title />
      </cc:Work>
    </rdf:RDF>
  </metadata>
  <g
     transform="matrix(1.0793638,0,0,1.0793638,-306.47582,-1239.4583)"
     id="g21659"
     style="fill:#000000;fill-opacity:1;stroke:#ffffff;stroke-width:0.1;stroke-miterlimit:4;stroke-dasharray:none;stroke-opacity:1">
    <path
       d="m 289.5,1149.4015 c -1.38071,0 -2.5,0.4477 -2.5,1 l 0,1.5 c 0,0.5523 1.11929,1 2.5,1 1.38071,0 2.5,-0.4477 2.5,-1 l 0,-1.5 c 0,-0.5523 -1.11929,-1 -2.5,-1 z m -2.5,2.9607 0,5 c 0,0.5523 1.11929,1 2.5,1 1.38071,0 2.5,-0.4477 2.5,-1 l 0,-5 c 0,0.5523 -1.11929,1 -2.5,1 -1.38071,0 -2.5,-0.4477 -2.5,-1 z m 1,2.6472 c 0,0 0.5,0.25 1.5,0.25 1,0 1.5,-0.25 1.5,-0.25 l 0,1.3528 c 0,0 -0.5,0.25 -1.5,0.25 -1,0 -1.5,-0.25 -1.5,-0.25 z"
       inkscape:connector-curvature="0"
       id="path14819"
       style="color:#000000;display:inline;overflow:visible;visibility:visible;fill:#000000;fill-opacity:1;stroke:#ffffff;stroke-width:0.1;stroke-miterlimit:4;stroke-dasharray:none;stroke-opacity:1;marker:none;enable-background:accumulate"
       sodipodi:nodetypes="ssssssscssscsccsccscc" />
  </g>
</svg>
