<?xml version="1.0" encoding="UTF-8" standalone="no"?>
<!-- Created with Inkscape (http://www.inkscape.org/) -->

<svg
   xmlns:dc="http://purl.org/dc/elements/1.1/"
   xmlns:cc="http://creativecommons.org/ns#"
   xmlns:rdf="http://www.w3.org/1999/02/22-rdf-syntax-ns#"
   xmlns:svg="http://www.w3.org/2000/svg"
   xmlns="http://www.w3.org/2000/svg"
   xmlns:sodipodi="http://sodipodi.sourceforge.net/DTD/sodipodi-0.dtd"
   xmlns:inkscape="http://www.inkscape.org/namespaces/inkscape"
   version="1.1"
   width="12"
   height="12"
   id="svg4764"
   inkscape:version="0.91 r13725"
   sodipodi:docname="shower.svg">
  <sodipodi:namedview
     pagecolor="#ffffff"
     bordercolor="#666666"
     borderopacity="1"
     objecttolerance="10"
     gridtolerance="10"
     guidetolerance="10"
     inkscape:pageopacity="0"
     inkscape:pageshadow="2"
     inkscape:window-width="1033"
     inkscape:window-height="750"
     id="namedview10"
     showgrid="false"
     inkscape:zoom="22.627417"
     inkscape:cx="9.2678705"
     inkscape:cy="7.4726738"
     inkscape:window-x="88"
     inkscape:window-y="0"
     inkscape:window-maximized="0"
     inkscape:current-layer="svg4764" />
  <defs
     id="defs4766" />
  <metadata
     id="metadata4769">
    <rdf:RDF>
      <cc:Work
         rdf:about="">
        <dc:format>image/svg+xml</dc:format>
        <dc:type
           rdf:resource="http://purl.org/dc/dcmitype/StillImage" />
        <dc:title />
      </cc:Work>
    </rdf:RDF>
  </metadata>
  <g
     id="g4396"
     transform="matrix(1.1212398,0,0,1.2358496,-0.25764246,-2.5062288)"
     style="opacity:1;fill:#000000;fill-opacity:1;stroke:#ffffff;stroke-width:0.08495089;stroke-miterlimit:4;stroke-dasharray:none;stroke-opacity:1">
    <path
       sodipodi:nodetypes="scsccscsccs"
       inkscape:connector-curvature="0"
       id="path7660-7"
       d="m 9.6069093,2.9122103 c -1.9288546,0 -2.2626553,0.7861984 -2.2626553,0.7861984 0,0 -2.8071541,0.5006283 -3.0407815,0.2326012 -0.4681148,-0.5370404 -0.883248,0.1653787 -0.883248,0.1653787 l 4.9557349,4.7199889 c 0,0 0.6437727,-0.4557852 -0.011434,-1.0671978 -0.281801,-0.2629643 0.2193018,-2.8695062 0.2193018,-2.8695062 0,0 0.036236,-0.4533958 1.1674485,-0.4533958 l 1.1242503,0 0,-1.5140674 z"
       style="color:#000000;display:inline;overflow:visible;visibility:visible;fill:#000000;fill-opacity:1;fill-rule:nonzero;stroke:#ffffff;stroke-width:0.08495089;stroke-miterlimit:4;stroke-dasharray:none;stroke-opacity:1;marker:none;enable-background:accumulate" />
    <path
       inkscape:transform-center-y="0.081202839"
       inkscape:transform-center-x="0.16451939"
       style="fill:#000000;fill-opacity:1;fill-rule:evenodd;stroke:#ffffff;stroke-width:0.1033046;stroke-linecap:butt;stroke-linejoin:miter;stroke-miterlimit:4;stroke-dasharray:none;stroke-opacity:1"
       d="m 5.3922781,6.5808756 c -0.6036967,0.5496217 0,0 -0.6036967,0.5496217 -0.063078,0.057427 0.1290575,0.2271005 0.1921329,0.1696741 0.603697,-0.5496216 0,0 0.603697,-0.5496216 C 5.6474873,6.6931235 5.4553537,6.5234492 5.3922781,6.5808756 Z"
       id="path4332"
       inkscape:connector-curvature="0"
       sodipodi:nodetypes="sssss" />
    <path
       sodipodi:nodetypes="sssss"
       inkscape:connector-curvature="0"
       id="path4340"
       d="m 4.6188444,5.9534159 c -0.6036968,0.5496219 0,0 -0.6036968,0.5496219 -0.063078,0.057426 0.1290576,0.2271003 0.192133,0.169674 0.6036969,-0.5496219 0,0 0.6036969,-0.5496219 0.063076,-0.057426 -0.1290576,-0.2271003 -0.1921331,-0.169674 z"
       style="fill:#000000;fill-opacity:1;fill-rule:evenodd;stroke:#ffffff;stroke-width:0.1033046;stroke-linecap:butt;stroke-linejoin:miter;stroke-miterlimit:4;stroke-dasharray:none;stroke-opacity:1"
       inkscape:transform-center-x="0.1645195"
       inkscape:transform-center-y="0.081202822" />
    <path
       sodipodi:nodetypes="sssss"
       inkscape:connector-curvature="0"
       id="path4344"
       d="m 6.2025417,7.2743835 c -0.6036968,0.5496218 0,0 -0.6036968,0.5496218 -0.063078,0.057427 0.1290575,0.2271005 0.192133,0.1696741 0.6036968,-0.5496217 0,0 0.6036968,-0.5496217 0.063076,-0.057426 -0.1290574,-0.2271006 -0.192133,-0.1696742 z"
       style="fill:#000000;fill-opacity:1;fill-rule:evenodd;stroke:#ffffff;stroke-width:0.1033046;stroke-linecap:butt;stroke-linejoin:miter;stroke-miterlimit:4;stroke-dasharray:none;stroke-opacity:1"
       inkscape:transform-center-x="0.1645195"
       inkscape:transform-center-y="0.08120288" />
    <path
       inkscape:transform-center-y="0.11006715"
       inkscape:transform-center-x="0.14212661"
       style="fill:#000000;fill-opacity:1;fill-rule:evenodd;stroke:#ffffff;stroke-width:0.1033046;stroke-linecap:butt;stroke-linejoin:miter;stroke-miterlimit:4;stroke-dasharray:none;stroke-opacity:1"
       d="m 7.6772926,8.5398273 c -0.463246,0.6500508 0,0 -0.463246,0.6500508 -0.048402,0.06792 0.1788394,0.1981187 0.2272402,0.1301998 0.4632465,-0.6500508 0,0 0.4632465,-0.6500508 C 7.952934,8.6021097 7.7256938,8.4719085 7.6772926,8.5398275 Z"
       id="path4348"
       inkscape:connector-curvature="0"
       sodipodi:nodetypes="sssss" />
    <path
       sodipodi:nodetypes="sssss"
       inkscape:connector-curvature="0"
       id="path4350"
       d="m 6.9222743,7.9288797 c -0.4632461,0.6500507 0,0 -0.4632461,0.6500507 -0.048402,0.06792 0.1788395,0.1981188 0.2272403,0.1301999 0.4632465,-0.6500508 0,0 0.4632465,-0.6500508 C 7.1979161,7.991162 6.9706755,7.8609609 6.9222743,7.9288799 Z"
       style="fill:#000000;fill-opacity:1;fill-rule:evenodd;stroke:#ffffff;stroke-width:0.1033046;stroke-linecap:butt;stroke-linejoin:miter;stroke-miterlimit:4;stroke-dasharray:none;stroke-opacity:1"
       inkscape:transform-center-x="0.14212656"
       inkscape:transform-center-y="0.11006715" />
    <path
       sodipodi:nodetypes="sssss"
       inkscape:connector-curvature="0"
       id="path4360"
       d="m 2.1234486,5.3933478 c -0.7021906,0.4457263 0,0 -0.7021906,0.4457263 -0.073369,0.046571 0.082446,0.2439276 0.1558138,0.1973566 0.7021905,-0.4457263 0,0 0.7021905,-0.4457263 0.073368,-0.046571 -0.082446,-0.2439276 -0.1558137,-0.1973566 z"
       style="fill:#000000;fill-opacity:1;fill-rule:evenodd;stroke:#ffffff;stroke-width:0.1033046;stroke-linecap:butt;stroke-linejoin:miter;stroke-miterlimit:4;stroke-dasharray:none;stroke-opacity:1" />
    <path
       style="fill:#000000;fill-opacity:1;fill-rule:evenodd;stroke:#ffffff;stroke-width:0.1033046;stroke-linecap:butt;stroke-linejoin:miter;stroke-miterlimit:4;stroke-dasharray:none;stroke-opacity:1"
       d="m 2.9013502,6.0509988 c -0.7021906,0.4457263 0,0 -0.7021906,0.4457263 -0.073369,0.046571 0.082447,0.2439275 0.1558137,0.1973565 0.7021906,-0.4457263 0,0 0.7021906,-0.4457263 C 3.130532,6.2017853 2.9747177,6.004428 2.9013502,6.0509988 Z"
       id="path4362"
       inkscape:connector-curvature="0"
       sodipodi:nodetypes="sssss" />
    <path
       style="fill:#000000;fill-opacity:1;fill-rule:evenodd;stroke:#ffffff;stroke-width:0.1033046;stroke-linecap:butt;stroke-linejoin:miter;stroke-miterlimit:4;stroke-dasharray:none;stroke-opacity:1"
       d="m 1.0556912,6.0471936 c -0.70219069,0.4457263 0,0 -0.70219069,0.4457263 -0.0733684,0.046572 0.0824464,0.2439274 0.15581383,0.1973565 0.70219066,-0.4457263 0,0 0.70219066,-0.4457263 C 1.284872,6.1979801 1.129057,6.0006226 1.0556912,6.0471936 Z"
       id="path4366"
       inkscape:connector-curvature="0"
       sodipodi:nodetypes="sssss" />
    <path
       sodipodi:nodetypes="sssss"
       inkscape:connector-curvature="0"
       id="path4368"
       d="m 1.8596355,6.7748996 c -0.7021905,0.4457262 0,0 -0.7021905,0.4457262 -0.073369,0.046572 0.082446,0.2439275 0.1558137,0.1973565 0.7021908,-0.4457264 0,0 0.7021908,-0.4457264 0.073367,-0.04657 -0.082447,-0.2439275 -0.155814,-0.1973563 z"
       style="fill:#000000;fill-opacity:1;fill-rule:evenodd;stroke:#ffffff;stroke-width:0.1033046;stroke-linecap:butt;stroke-linejoin:miter;stroke-miterlimit:4;stroke-dasharray:none;stroke-opacity:1" />
    <path
       style="fill:#000000;fill-opacity:1;fill-rule:evenodd;stroke:#ffffff;stroke-width:0.1033046;stroke-linecap:butt;stroke-linejoin:miter;stroke-miterlimit:4;stroke-dasharray:none;stroke-opacity:1"
       d="m 3.2172488,4.739502 c -0.7021906,0.4457263 0,0 -0.7021906,0.4457263 -0.073369,0.046572 0.082446,0.2439275 0.1558138,0.1973566 0.7021906,-0.4457264 0,0 0.7021906,-0.4457264 0.073368,-0.04657 -0.082447,-0.2439273 -0.1558138,-0.1973565 z"
       id="path4370"
       inkscape:connector-curvature="0"
       sodipodi:nodetypes="sssss" />
    <path
       sodipodi:nodetypes="sssss"
       inkscape:connector-curvature="0"
       id="path4372"
       d="m 3.9430648,5.3738015 c -0.7021908,0.4457262 0,0 -0.7021908,0.4457262 -0.073369,0.046572 0.082448,0.2439275 0.1558139,0.1973566 0.7021906,-0.4457263 0,0 0.7021906,-0.4457263 0.073368,-0.04657 -0.082448,-0.2439275 -0.1558137,-0.1973565 z"
       style="fill:#000000;fill-opacity:1;fill-rule:evenodd;stroke:#ffffff;stroke-width:0.1033046;stroke-linecap:butt;stroke-linejoin:miter;stroke-miterlimit:4;stroke-dasharray:none;stroke-opacity:1" />
    <path
       sodipodi:nodetypes="sssss"
       inkscape:connector-curvature="0"
       id="path4376"
       d="m 7.0262211,9.5205959 c -0.4632462,0.6500511 0,0 -0.4632462,0.6500511 -0.048402,0.06791 0.1788394,0.198118 0.2272402,0.130199 0.4632465,-0.6500503 0,0 0.4632465,-0.6500503 C 7.3018624,9.5828784 7.0746222,9.4526771 7.0262211,9.520596 Z"
       style="fill:#000000;fill-opacity:1;fill-rule:evenodd;stroke:#ffffff;stroke-width:0.1033046;stroke-linecap:butt;stroke-linejoin:miter;stroke-miterlimit:4;stroke-dasharray:none;stroke-opacity:1"
       inkscape:transform-center-x="0.14212673"
       inkscape:transform-center-y="0.11006633" />
    <path
       inkscape:transform-center-y="0.11006708"
       inkscape:transform-center-x="0.14212663"
       style="fill:#000000;fill-opacity:1;fill-rule:evenodd;stroke:#ffffff;stroke-width:0.1033046;stroke-linecap:butt;stroke-linejoin:miter;stroke-miterlimit:4;stroke-dasharray:none;stroke-opacity:1"
       d="m 6.1930742,8.8629449 c -0.4632461,0.6500509 0,0 -0.4632461,0.6500509 -0.048402,0.06792 0.1788394,0.1981187 0.2272402,0.1301998 0.4632466,-0.6500508 0,0 0.4632466,-0.6500508 0.0484,-0.067918 -0.1788396,-0.1981186 -0.2272407,-0.1301997 z"
       id="path4378"
       inkscape:connector-curvature="0"
       sodipodi:nodetypes="sssss" />
    <path
       sodipodi:nodetypes="sssss"
       inkscape:connector-curvature="0"
       id="path4380"
       d="m 4.5068208,7.4215344 c -0.6036968,0.5496218 0,0 -0.6036968,0.5496218 -0.063078,0.057427 0.1290576,0.2271004 0.1921329,0.169674 0.603697,-0.5496217 0,0 0.603697,-0.5496217 C 4.7620298,7.5337822 4.5698963,7.364108 4.5068208,7.4215344 Z"
       style="fill:#000000;fill-opacity:1;fill-rule:evenodd;stroke:#ffffff;stroke-width:0.1033046;stroke-linecap:butt;stroke-linejoin:miter;stroke-miterlimit:4;stroke-dasharray:none;stroke-opacity:1"
       inkscape:transform-center-x="0.16451946"
       inkscape:transform-center-y="0.08120286" />
    <path
       inkscape:transform-center-y="0.081202894"
       inkscape:transform-center-x="0.1645193"
       style="fill:#000000;fill-opacity:1;fill-rule:evenodd;stroke:#ffffff;stroke-width:0.1033046;stroke-linecap:butt;stroke-linejoin:miter;stroke-miterlimit:4;stroke-dasharray:none;stroke-opacity:1"
       d="m 3.7073442,6.770723 c -0.6036967,0.549622 0,0 -0.6036967,0.549622 -0.063078,0.057427 0.1290576,0.2271002 0.1921329,0.1696741 0.603697,-0.549622 0,0 0.603697,-0.549622 C 3.9625539,6.8829713 3.7704197,6.7132968 3.7073442,6.770723 Z"
       id="path4382"
       inkscape:connector-curvature="0"
       sodipodi:nodetypes="sssss" />
    <path
       inkscape:transform-center-y="0.08120288"
       inkscape:transform-center-x="0.16451938"
       style="fill:#000000;fill-opacity:1;fill-rule:evenodd;stroke:#ffffff;stroke-width:0.1033046;stroke-linecap:butt;stroke-linejoin:miter;stroke-miterlimit:4;stroke-dasharray:none;stroke-opacity:1"
       d="m 5.3431271,8.1617455 c -0.6036967,0.5496219 0,0 -0.6036967,0.5496219 -0.063078,0.057427 0.1290577,0.2271004 0.1921331,0.1696741 0.6036968,-0.5496219 0,0 0.6036968,-0.5496219 C 5.5983368,8.2739937 5.4062027,8.1043192 5.3431271,8.1617455 Z"
       id="path4384"
       inkscape:connector-curvature="0"
       sodipodi:nodetypes="sssss" />
    <path
       inkscape:transform-center-y="0.11006731"
       inkscape:transform-center-x="0.14212646"
       style="fill:#000000;fill-opacity:1;fill-rule:evenodd;stroke:#ffffff;stroke-width:0.1033046;stroke-linecap:butt;stroke-linejoin:miter;stroke-miterlimit:4;stroke-dasharray:none;stroke-opacity:1"
       d="m 6.3751496,10.454662 c -0.4632461,0.65005 0,0 -0.4632461,0.65005 -0.048402,0.06791 0.1788393,0.198119 0.2272403,0.1302 0.4632465,-0.65005 0,0 0.4632465,-0.65005 0.048401,-0.06791 -0.1788397,-0.19812 -0.2272407,-0.1302 z"
       id="path4386"
       inkscape:connector-curvature="0"
       sodipodi:nodetypes="sssss" />
    <path
       sodipodi:nodetypes="sssss"
       inkscape:connector-curvature="0"
       id="path4388"
       d="m 5.463874,9.750307 c -0.4632463,0.650051 0,0 -0.4632463,0.650051 -0.048402,0.06791 0.1788396,0.198118 0.2272405,0.130199 0.4632464,-0.6500498 0,0 0.4632464,-0.6500498 C 5.7395157,9.8125887 5.5122751,9.6823882 5.463874,9.7503071 Z"
       style="fill:#000000;fill-opacity:1;fill-rule:evenodd;stroke:#ffffff;stroke-width:0.1033046;stroke-linecap:butt;stroke-linejoin:miter;stroke-miterlimit:4;stroke-dasharray:none;stroke-opacity:1"
       inkscape:transform-center-x="0.14212668"
       inkscape:transform-center-y="0.11006622" />
    <path
       inkscape:transform-center-y="0.081202871"
       inkscape:transform-center-x="0.16451954"
       style="fill:#000000;fill-opacity:1;fill-rule:evenodd;stroke:#ffffff;stroke-width:0.1033046;stroke-linecap:butt;stroke-linejoin:miter;stroke-miterlimit:4;stroke-dasharray:none;stroke-opacity:1"
       d="m 3.5953204,8.2855448 c -0.6036967,0.5496217 0,0 -0.6036967,0.5496217 -0.063078,0.057427 0.1290577,0.2271006 0.1921331,0.1696742 0.6036968,-0.5496217 0,0 0.6036968,-0.5496217 C 3.8505296,8.3977917 3.658396,8.2281184 3.5953204,8.2855448 Z"
       id="path4390"
       inkscape:connector-curvature="0"
       sodipodi:nodetypes="sssss" />
    <path
       sodipodi:nodetypes="sssss"
       inkscape:connector-curvature="0"
       id="path4392"
       d="m 2.7437582,7.541327 c -0.6036968,0.5496218 0,0 -0.6036968,0.5496218 -0.063078,0.057427 0.1290577,0.2271005 0.192133,0.1696741 0.6036969,-0.5496218 0,0 0.6036969,-0.5496218 C 2.9989678,7.6535752 2.8068338,7.4839006 2.7437582,7.541327 Z"
       style="fill:#000000;fill-opacity:1;fill-rule:evenodd;stroke:#ffffff;stroke-width:0.1033046;stroke-linecap:butt;stroke-linejoin:miter;stroke-miterlimit:4;stroke-dasharray:none;stroke-opacity:1"
       inkscape:transform-center-x="0.16451947"
       inkscape:transform-center-y="0.081202926" />
    <path
       sodipodi:nodetypes="sssss"
       inkscape:connector-curvature="0"
       id="path4394"
       d="m 4.4837127,9.0491076 c -0.6036968,0.5496217 0,0 -0.6036968,0.5496217 -0.063078,0.057427 0.1290577,0.2271006 0.1921329,0.1696742 0.6036969,-0.5496217 0,0 0.6036969,-0.5496217 0.063076,-0.057426 -0.1290574,-0.2271006 -0.192133,-0.1696742 z"
       style="fill:#000000;fill-opacity:1;fill-rule:evenodd;stroke:#ffffff;stroke-width:0.1033046;stroke-linecap:butt;stroke-linejoin:miter;stroke-miterlimit:4;stroke-dasharray:none;stroke-opacity:1"
       inkscape:transform-center-x="0.16451954"
       inkscape:transform-center-y="0.081202875" />
  </g>
</svg>
