<?xml version="1.0" encoding="UTF-8" standalone="no"?>
<!-- Created with Inkscape (http://www.inkscape.org/) -->

<svg
   xmlns:dc="http://purl.org/dc/elements/1.1/"
   xmlns:cc="http://creativecommons.org/ns#"
   xmlns:rdf="http://www.w3.org/1999/02/22-rdf-syntax-ns#"
   xmlns:svg="http://www.w3.org/2000/svg"
   xmlns="http://www.w3.org/2000/svg"
   xmlns:sodipodi="http://sodipodi.sourceforge.net/DTD/sodipodi-0.dtd"
   xmlns:inkscape="http://www.inkscape.org/namespaces/inkscape"
   version="1.1"
   width="12"
   height="12"
   id="svg4764"
   inkscape:version="0.91 r13725"
   sodipodi:docname="shower.svg">
  <sodipodi:namedview
     pagecolor="#ffffff"
     bordercolor="#666666"
     borderopacity="1"
     objecttolerance="10"
     gridtolerance="10"
     guidetolerance="10"
     inkscape:pageopacity="0"
     inkscape:pageshadow="2"
     inkscape:window-width="1033"
     inkscape:window-height="750"
     id="namedview10"
     showgrid="false"
     inkscape:zoom="22.627417"
     inkscape:cx="7.0159289"
     inkscape:cy="3.5985237"
     inkscape:window-x="88"
     inkscape:window-y="0"
     inkscape:window-maximized="0"
     inkscape:current-layer="svg4764" />
  <defs
     id="defs4766" />
  <metadata
     id="metadata4769">
    <rdf:RDF>
      <cc:Work
         rdf:about="">
        <dc:format>image/svg+xml</dc:format>
        <dc:type
           rdf:resource="http://purl.org/dc/dcmitype/StillImage" />
        <dc:title></dc:title>
      </cc:Work>
    </rdf:RDF>
  </metadata>
  <g
     id="g4396"
     transform="matrix(1.1212398,0,0,1.2358496,-0.99914001,-1.7883987)"
     style="opacity:1;fill:#000000;fill-opacity:1;stroke:#ffffff;stroke-width:0.08495089;stroke-miterlimit:4;stroke-dasharray:none;stroke-opacity:1">
    <path
       sodipodi:nodetypes="scsccscsccs"
       inkscape:connector-curvature="0"
       id="path7660-7"
       d="m 10.003865,2.2172107 c -1.9288547,0 -3.0143501,1.2666371 -3.0143501,1.2666371 0,0 -2.8071541,0.5006283 -3.0407815,0.2326012 -0.4681148,-0.5370404 -0.883248,0.1653787 -0.883248,0.1653787 l 4.9557349,4.7199889 c 0,0 0.6437727,-0.4557852 -0.011434,-1.0671978 -0.281801,-0.2629643 0.2193018,-2.8695062 0.2193018,-2.8695062 0,0 0.7879304,-0.9338345 1.9191429,-0.9338345 l 1.12425,0 0,-1.5140674 z"
       style="color:#000000;display:inline;overflow:visible;visibility:visible;fill:#000000;fill-opacity:1;fill-rule:nonzero;stroke:#ffffff;stroke-width:0.08495089;stroke-miterlimit:4;stroke-dasharray:none;stroke-opacity:1;marker:none;enable-background:accumulate" />
    <path
       inkscape:transform-center-y="0.070518927"
       inkscape:transform-center-x="0.12810901"
       style="fill:#000000;fill-opacity:1;fill-rule:evenodd;stroke:#ffffff;stroke-width:0.08495089;stroke-linecap:butt;stroke-linejoin:miter;stroke-miterlimit:4;stroke-dasharray:none;stroke-opacity:1"
       d="m 5.1507206,6.3286442 c -0.4700904,0.4773072 0,0 -0.4700904,0.4773072 -0.049118,0.049871 0.1004954,0.1972205 0.1496113,0.1473498 0.4700906,-0.4773072 0,0 0.4700906,-0.4773072 C 5.3494487,6.4261233 5.1998367,6.2787735 5.1507206,6.3286442 Z"
       id="path4332"
       inkscape:connector-curvature="0"
       sodipodi:nodetypes="sssss" />
    <path
       sodipodi:nodetypes="sssss"
       inkscape:connector-curvature="0"
       id="path4340"
       d="m 4.5484583,5.7837403 c -0.4700904,0.4773073 0,0 -0.4700904,0.4773073 -0.049118,0.049871 0.1004954,0.1972204 0.1496113,0.1473498 0.4700906,-0.4773073 0,0 0.4700906,-0.4773073 C 4.7471864,5.8812195 4.5975744,5.7338697 4.5484583,5.7837403 Z"
       style="fill:#000000;fill-opacity:1;fill-rule:evenodd;stroke:#ffffff;stroke-width:0.08495089;stroke-linecap:butt;stroke-linejoin:miter;stroke-miterlimit:4;stroke-dasharray:none;stroke-opacity:1"
       inkscape:transform-center-x="0.12810903"
       inkscape:transform-center-y="0.070518893" />
    <path
       sodipodi:nodetypes="sssss"
       inkscape:connector-curvature="0"
       id="path4344"
       d="m 5.7816618,6.9309062 c -0.4700904,0.4773072 0,0 -0.4700904,0.4773072 -0.049118,0.049871 0.1004953,0.1972205 0.1496113,0.1473498 0.4700905,-0.4773072 0,0 0.4700905,-0.4773072 C 5.9803898,7.0283853 5.8307779,6.8810355 5.7816618,6.9309062 Z"
       style="fill:#000000;fill-opacity:1;fill-rule:evenodd;stroke:#ffffff;stroke-width:0.08495089;stroke-linecap:butt;stroke-linejoin:miter;stroke-miterlimit:4;stroke-dasharray:none;stroke-opacity:1"
       inkscape:transform-center-x="0.12810904"
       inkscape:transform-center-y="0.070518907" />
    <path
       inkscape:transform-center-y="0.095585378"
       inkscape:transform-center-x="0.11067208"
       style="fill:#000000;fill-opacity:1;fill-rule:evenodd;stroke:#ffffff;stroke-width:0.08495089;stroke-linecap:butt;stroke-linejoin:miter;stroke-miterlimit:4;stroke-dasharray:none;stroke-opacity:1"
       d="m 6.9300303,8.0298535 c -0.3607234,0.5645227 0,0 -0.3607234,0.5645227 -0.03769,0.058983 0.1392598,0.1720519 0.1769489,0.1130692 0.3607237,-0.5645226 0,0 0.3607237,-0.5645226 C 7.1446684,8.0839411 6.9677196,7.9708709 6.9300303,8.0298537 Z"
       id="path4348"
       inkscape:connector-curvature="0"
       sodipodi:nodetypes="sssss" />
    <path
       sodipodi:nodetypes="sssss"
       inkscape:connector-curvature="0"
       id="path4350"
       d="m 6.3421078,7.4992892 c -0.3607234,0.5645227 0,0 -0.3607234,0.5645227 -0.03769,0.058983 0.1392598,0.1720519 0.1769489,0.1130692 0.3607237,-0.5645226 0,0 0.3607237,-0.5645226 C 6.5567459,7.5533768 6.3797971,7.4403066 6.3421078,7.4992894 Z"
       style="fill:#000000;fill-opacity:1;fill-rule:evenodd;stroke:#ffffff;stroke-width:0.08495089;stroke-linecap:butt;stroke-linejoin:miter;stroke-miterlimit:4;stroke-dasharray:none;stroke-opacity:1"
       inkscape:transform-center-x="0.11067208"
       inkscape:transform-center-y="0.095585372" />
    <path
       sodipodi:nodetypes="sssss"
       inkscape:connector-curvature="0"
       id="path4360"
       d="m 2.6053276,5.2973613 c -0.5467862,0.3870813 0,0 -0.5467862,0.3870813 -0.057131,0.040444 0.0642,0.2118336 0.1213301,0.17139 0.5467862,-0.3870813 0,0 0.5467862,-0.3870813 0.05713,-0.040443 -0.0642,-0.2118336 -0.1213301,-0.17139 z"
       style="fill:#000000;fill-opacity:1;fill-rule:evenodd;stroke:#ffffff;stroke-width:0.08495089;stroke-linecap:butt;stroke-linejoin:miter;stroke-miterlimit:4;stroke-dasharray:none;stroke-opacity:1" />
    <path
       style="fill:#000000;fill-opacity:1;fill-rule:evenodd;stroke:#ffffff;stroke-width:0.08495089;stroke-linecap:butt;stroke-linejoin:miter;stroke-miterlimit:4;stroke-dasharray:none;stroke-opacity:1"
       d="m 3.211069,5.8684841 c -0.5467863,0.3870814 0,0 -0.5467863,0.3870814 -0.057131,0.040444 0.064201,0.2118336 0.1213301,0.17139 0.5467863,-0.3870814 0,0 0.5467863,-0.3870814 0.05713,-0.040443 -0.0642,-0.2118335 -0.1213301,-0.17139 z"
       id="path4362"
       inkscape:connector-curvature="0"
       sodipodi:nodetypes="sssss" />
    <path
       style="fill:#000000;fill-opacity:1;fill-rule:evenodd;stroke:#ffffff;stroke-width:0.08495089;stroke-linecap:butt;stroke-linejoin:miter;stroke-miterlimit:4;stroke-dasharray:none;stroke-opacity:1"
       d="m 1.7738795,5.8651795 c -0.5467863,0.3870814 0,0 -0.5467863,0.3870814 -0.057131,0.040444 0.0642,0.2118335 0.1213301,0.17139 0.5467863,-0.3870814 0,0 0.5467863,-0.3870814 0.05713,-0.040443 -0.064201,-0.2118336 -0.1213301,-0.17139 z"
       id="path4366"
       inkscape:connector-curvature="0"
       sodipodi:nodetypes="sssss" />
    <path
       sodipodi:nodetypes="sssss"
       inkscape:connector-curvature="0"
       id="path4368"
       d="m 2.3999,6.49714 c -0.5467862,0.3870814 0,0 -0.5467862,0.3870814 -0.057131,0.040444 0.0642,0.2118336 0.1213301,0.17139 0.5467863,-0.3870814 0,0 0.5467863,-0.3870814 C 2.5783602,6.628087 2.4570297,6.4566964 2.3999,6.49714 Z"
       style="fill:#000000;fill-opacity:1;fill-rule:evenodd;stroke:#ffffff;stroke-width:0.08495089;stroke-linecap:butt;stroke-linejoin:miter;stroke-miterlimit:4;stroke-dasharray:none;stroke-opacity:1" />
    <path
       style="fill:#000000;fill-opacity:1;fill-rule:evenodd;stroke:#ffffff;stroke-width:0.08495089;stroke-linecap:butt;stroke-linejoin:miter;stroke-miterlimit:4;stroke-dasharray:none;stroke-opacity:1"
       d="m 3.4570549,4.729543 c -0.5467862,0.3870814 0,0 -0.5467862,0.3870814 -0.057131,0.040444 0.0642,0.2118336 0.1213301,0.17139 0.5467863,-0.3870814 0,0 0.5467863,-0.3870814 0.05713,-0.040443 -0.064201,-0.2118335 -0.1213302,-0.17139 z"
       id="path4370"
       inkscape:connector-curvature="0"
       sodipodi:nodetypes="sssss" />
    <path
       sodipodi:nodetypes="sssss"
       inkscape:connector-curvature="0"
       id="path4372"
       d="m 4.0222379,5.2803867 c -0.5467863,0.3870813 0,0 -0.5467863,0.3870813 -0.057131,0.040444 0.064201,0.2118336 0.1213301,0.17139 0.5467863,-0.3870813 0,0 0.5467863,-0.3870813 0.05713,-0.040443 -0.064201,-0.2118336 -0.1213301,-0.17139 z"
       style="fill:#000000;fill-opacity:1;fill-rule:evenodd;stroke:#ffffff;stroke-width:0.08495089;stroke-linecap:butt;stroke-linejoin:miter;stroke-miterlimit:4;stroke-dasharray:none;stroke-opacity:1" />
    <path
       sodipodi:nodetypes="sssss"
       inkscape:connector-curvature="0"
       id="path4376"
       d="m 6.4230498,8.8815809 c -0.3607235,0.5645227 0,0 -0.3607235,0.5645227 -0.03769,0.058983 0.1392598,0.1720514 0.1769489,0.1130694 0.3607237,-0.5645228 0,0 0.3607237,-0.5645228 C 6.6376878,8.9356685 6.460739,8.8225983 6.4230498,8.881581 Z"
       style="fill:#000000;fill-opacity:1;fill-rule:evenodd;stroke:#ffffff;stroke-width:0.08495089;stroke-linecap:butt;stroke-linejoin:miter;stroke-miterlimit:4;stroke-dasharray:none;stroke-opacity:1"
       inkscape:transform-center-x="0.11067211"
       inkscape:transform-center-y="0.095585362" />
    <path
       inkscape:transform-center-y="0.09558537"
       inkscape:transform-center-x="0.11067206"
       style="fill:#000000;fill-opacity:1;fill-rule:evenodd;stroke:#ffffff;stroke-width:0.08495089;stroke-linecap:butt;stroke-linejoin:miter;stroke-miterlimit:4;stroke-dasharray:none;stroke-opacity:1"
       d="m 5.7742896,8.3104581 c -0.3607234,0.5645227 0,0 -0.3607234,0.5645227 -0.03769,0.058983 0.1392598,0.1720519 0.1769489,0.1130692 0.3607237,-0.5645226 0,0 0.3607237,-0.5645226 C 5.9889276,8.3645457 5.8119789,8.2514755 5.7742896,8.3104583 Z"
       id="path4378"
       inkscape:connector-curvature="0"
       sodipodi:nodetypes="sssss" />
    <path
       sodipodi:nodetypes="sssss"
       inkscape:connector-curvature="0"
       id="path4380"
       d="m 4.461227,7.0586962 c -0.4700904,0.4773072 0,0 -0.4700904,0.4773072 -0.049118,0.049871 0.1004954,0.1972205 0.1496113,0.1473498 0.4700906,-0.4773072 0,0 0.4700906,-0.4773072 C 4.6599551,7.1561753 4.5103431,7.0088255 4.461227,7.0586962 Z"
       style="fill:#000000;fill-opacity:1;fill-rule:evenodd;stroke:#ffffff;stroke-width:0.08495089;stroke-linecap:butt;stroke-linejoin:miter;stroke-miterlimit:4;stroke-dasharray:none;stroke-opacity:1"
       inkscape:transform-center-x="0.12810904"
       inkscape:transform-center-y="0.070518916" />
    <path
       inkscape:transform-center-y="0.070518904"
       inkscape:transform-center-x="0.12810904"
       style="fill:#000000;fill-opacity:1;fill-rule:evenodd;stroke:#ffffff;stroke-width:0.08495089;stroke-linecap:butt;stroke-linejoin:miter;stroke-miterlimit:4;stroke-dasharray:none;stroke-opacity:1"
       d="m 3.8386855,6.4935131 c -0.4700904,0.4773073 0,0 -0.4700904,0.4773073 -0.049118,0.049871 0.1004954,0.1972204 0.1496113,0.1473498 0.4700906,-0.4773073 0,0 0.4700906,-0.4773073 C 4.0374136,6.5909923 3.8878016,6.4436425 3.8386855,6.4935131 Z"
       id="path4382"
       inkscape:connector-curvature="0"
       sodipodi:nodetypes="sssss" />
    <path
       inkscape:transform-center-y="0.070518904"
       inkscape:transform-center-x="0.12810905"
       style="fill:#000000;fill-opacity:1;fill-rule:evenodd;stroke:#ffffff;stroke-width:0.08495089;stroke-linecap:butt;stroke-linejoin:miter;stroke-miterlimit:4;stroke-dasharray:none;stroke-opacity:1"
       d="m 5.1124474,7.7015166 c -0.4700904,0.4773073 0,0 -0.4700904,0.4773073 -0.049118,0.049871 0.1004954,0.1972204 0.1496114,0.1473498 0.4700905,-0.4773073 0,0 0.4700905,-0.4773073 C 5.3111755,7.7989958 5.1615635,7.651646 5.1124474,7.7015166 Z"
       id="path4384"
       inkscape:connector-curvature="0"
       sodipodi:nodetypes="sssss" />
    <path
       inkscape:transform-center-y="0.095585303"
       inkscape:transform-center-x="0.11067204"
       style="fill:#000000;fill-opacity:1;fill-rule:evenodd;stroke:#ffffff;stroke-width:0.08495089;stroke-linecap:butt;stroke-linejoin:miter;stroke-miterlimit:4;stroke-dasharray:none;stroke-opacity:1"
       d="m 5.9160692,9.69275 c -0.3607234,0.564522 0,0 -0.3607234,0.564522 -0.03769,0.05898 0.1392598,0.172052 0.1769489,0.11307 0.3607237,-0.564523 0,0 0.3607237,-0.564523 C 6.1307074,9.746839 5.9537585,9.633767 5.9160692,9.69275 Z"
       id="path4386"
       inkscape:connector-curvature="0"
       sodipodi:nodetypes="sssss" />
    <path
       sodipodi:nodetypes="sssss"
       inkscape:connector-curvature="0"
       id="path4388"
       d="m 5.2064714,9.0810686 c -0.3607235,0.5645224 0,0 -0.3607235,0.5645224 -0.03769,0.05898 0.1392598,0.172052 0.1769489,0.113069 0.3607237,-0.5645221 0,0 0.3607237,-0.5645221 C 5.4211094,9.1351562 5.2441606,9.022086 5.2064714,9.0810687 Z"
       style="fill:#000000;fill-opacity:1;fill-rule:evenodd;stroke:#ffffff;stroke-width:0.08495089;stroke-linecap:butt;stroke-linejoin:miter;stroke-miterlimit:4;stroke-dasharray:none;stroke-opacity:1"
       inkscape:transform-center-x="0.11067212"
       inkscape:transform-center-y="0.095585065" />
    <path
       inkscape:transform-center-y="0.070518882"
       inkscape:transform-center-x="0.12810905"
       style="fill:#000000;fill-opacity:1;fill-rule:evenodd;stroke:#ffffff;stroke-width:0.08495089;stroke-linecap:butt;stroke-linejoin:miter;stroke-miterlimit:4;stroke-dasharray:none;stroke-opacity:1"
       d="m 3.7514542,7.8090274 c -0.4700904,0.4773072 0,0 -0.4700904,0.4773072 -0.049118,0.049871 0.1004954,0.1972205 0.1496114,0.1473498 0.4700905,-0.4773072 0,0 0.4700905,-0.4773072 C 3.9501823,7.9065065 3.8005703,7.7591567 3.7514542,7.8090274 Z"
       id="path4390"
       inkscape:connector-curvature="0"
       sodipodi:nodetypes="sssss" />
    <path
       sodipodi:nodetypes="sssss"
       inkscape:connector-curvature="0"
       id="path4392"
       d="m 3.0883543,7.1627275 c -0.4700904,0.4773072 0,0 -0.4700904,0.4773072 -0.049118,0.049871 0.1004954,0.1972205 0.1496113,0.1473498 0.4700906,-0.4773072 0,0 0.4700906,-0.4773072 C 3.2870824,7.2602066 3.1374704,7.1128568 3.0883543,7.1627275 Z"
       style="fill:#000000;fill-opacity:1;fill-rule:evenodd;stroke:#ffffff;stroke-width:0.08495089;stroke-linecap:butt;stroke-linejoin:miter;stroke-miterlimit:4;stroke-dasharray:none;stroke-opacity:1"
       inkscape:transform-center-x="0.128109"
       inkscape:transform-center-y="0.070518908" />
    <path
       sodipodi:nodetypes="sssss"
       inkscape:connector-curvature="0"
       id="path4394"
       d="m 4.4432331,8.4721271 c -0.4700904,0.4773072 0,0 -0.4700904,0.4773072 -0.049118,0.049871 0.1004954,0.1972205 0.1496113,0.1473498 0.4700906,-0.4773072 0,0 0.4700906,-0.4773072 C 4.6419612,8.5696062 4.4923492,8.4222564 4.4432331,8.4721271 Z"
       style="fill:#000000;fill-opacity:1;fill-rule:evenodd;stroke:#ffffff;stroke-width:0.08495089;stroke-linecap:butt;stroke-linejoin:miter;stroke-miterlimit:4;stroke-dasharray:none;stroke-opacity:1"
       inkscape:transform-center-x="0.12810901"
       inkscape:transform-center-y="0.070518895" />
  </g>
</svg>
