<?xml version="1.0" encoding="UTF-8" standalone="no"?>
<!-- Created with Inkscape (http://www.inkscape.org/) -->

<svg
   xmlns:dc="http://purl.org/dc/elements/1.1/"
   xmlns:cc="http://creativecommons.org/ns#"
   xmlns:rdf="http://www.w3.org/1999/02/22-rdf-syntax-ns#"
   xmlns:svg="http://www.w3.org/2000/svg"
   xmlns="http://www.w3.org/2000/svg"
   xmlns:sodipodi="http://sodipodi.sourceforge.net/DTD/sodipodi-0.dtd"
   xmlns:inkscape="http://www.inkscape.org/namespaces/inkscape"
   version="1.1"
   width="12"
   height="12"
   id="svg4764"
   inkscape:version="0.91 r13725"
   sodipodi:docname="toilet.svg">
  <sodipodi:namedview
     pagecolor="#ffffff"
     bordercolor="#666666"
     borderopacity="1"
     objecttolerance="10"
     gridtolerance="10"
     guidetolerance="10"
     inkscape:pageopacity="0"
     inkscape:pageshadow="2"
     inkscape:window-width="1033"
     inkscape:window-height="750"
     id="namedview10"
     showgrid="false"
     inkscape:zoom="19.666667"
     inkscape:cx="1.6952884"
     inkscape:cy="8.4484735"
     inkscape:window-x="88"
     inkscape:window-y="0"
     inkscape:window-maximized="0"
     inkscape:current-layer="svg4764" />
  <defs
     id="defs4766" />
  <metadata
     id="metadata4769">
    <rdf:RDF>
      <cc:Work
         rdf:about="">
        <dc:format>image/svg+xml</dc:format>
        <dc:type
           rdf:resource="http://purl.org/dc/dcmitype/StillImage" />
        <dc:title />
      </cc:Work>
    </rdf:RDF>
  </metadata>
  <path
     sodipodi:nodetypes="sssssssssscccccccccccccccccc"
     d="m 4.3838913,1.4999998 c -0.69036,0 -1.25,0.5596399 -1.25,1.2499999 0,0.69036 0.55964,1.25 1.25,1.25 0.69036,0 1.25,-0.55964 1.25,-1.25 0,-0.69036 -0.55964,-1.2499999 -1.25,-1.2499999 z m 3.75424,0 c -0.69036,0 -1.25,0.5596399 -1.25,1.2499999 0,0.69036 0.55964,1.25 1.25,1.25 0.6903604,0 1.2500004,-0.55964 1.2500004,-1.25 0,-0.69036 -0.55964,-1.2499999 -1.2500004,-1.2499999 z m -4.75424,2.9999999 0,1.5 -1.5,2.5 1.5,0 0,2.0000003 2,0 0,-2.0000003 1.5,0 -1.5,-2.5 0,-1.5 z m 2.75424,0 1,3.4999999 0,2.5000004 2.0000004,0 0,-2.5000004 1.0000003,-3.4999999 z"
     inkscape:connector-curvature="0"
     id="path7660-7"
     style="color:#000000;display:inline;overflow:visible;visibility:visible;fill:#000000;fill-opacity:1;fill-rule:nonzero;stroke:#ffffff;stroke-width:0.1;stroke-miterlimit:4;stroke-dasharray:none;stroke-opacity:1;marker:none;enable-background:accumulate" />
</svg>
