<?xml version="1.0" encoding="UTF-8" standalone="no"?>
<svg
   xmlns:dc="http://purl.org/dc/elements/1.1/"
   xmlns:cc="http://creativecommons.org/ns#"
   xmlns:rdf="http://www.w3.org/1999/02/22-rdf-syntax-ns#"
   xmlns:svg="http://www.w3.org/2000/svg"
   xmlns="http://www.w3.org/2000/svg"
   xmlns:sodipodi="http://sodipodi.sourceforge.net/DTD/sodipodi-0.dtd"
   xmlns:inkscape="http://www.inkscape.org/namespaces/inkscape"
   version="1.1"
   viewBox="0 -146 12 12"
   id="svg3433"
   inkscape:version="0.91 r13725"
   sodipodi:docname="water.svg"
   width="12"
   height="12">
  <metadata
     id="metadata3443">
    <rdf:RDF>
      <cc:Work
         rdf:about="">
        <dc:format>image/svg+xml</dc:format>
        <dc:type
           rdf:resource="http://purl.org/dc/dcmitype/StillImage" />
        <dc:title />
      </cc:Work>
    </rdf:RDF>
  </metadata>
  <defs
     id="defs3441" />
  <sodipodi:namedview
     pagecolor="#ffffff"
     bordercolor="#666666"
     borderopacity="1"
     objecttolerance="10"
     gridtolerance="10"
     guidetolerance="10"
     inkscape:pageopacity="0"
     inkscape:pageshadow="2"
     inkscape:window-width="1152"
     inkscape:window-height="755"
     id="namedview3439"
     showgrid="true"
     inkscape:zoom="34.5625"
     inkscape:cx="5.0530825"
     inkscape:cy="6.831191"
     inkscape:window-x="0"
     inkscape:window-y="0"
     inkscape:window-maximized="0"
     inkscape:current-layer="g3435">
    <inkscape:grid
       type="xygrid"
       id="grid4249" />
  </sodipodi:namedview>
  <g
     transform="matrix(1,0,0,-1,92.484375,-227)"
     id="g3435">
    <g
       id="g4256"
       transform="matrix(1.2406372,0,0,1.2406372,22.335199,19.258209)"
       style="stroke:#ffffff;stroke-width:0.08060374;stroke-miterlimit:4;stroke-dasharray:none;stroke-opacity:1">
      <path
         inkscape:connector-curvature="0"
         id="path4246"
         d="m -84.691345,-86.178206 -0.128375,-0.579543 c -0.06449,-0.193491 -0.118389,-0.37821 -0.161387,-0.550198 -0.04301,-0.171992 -0.0969,-0.333691 -0.161387,-0.484174 -0.06449,-0.193492 -0.137759,-0.355174 -0.223748,-0.484176 -0.086,-0.171993 -0.162921,-0.299144 -0.227415,-0.385138 -0.06452,-0.08601 -0.118389,-0.170765 -0.161387,-0.256759 -0.04298,-0.086 -0.06235,-0.193782 -0.06235,-0.322782 0.02151,-0.171993 0.05236,-0.322164 0.09536,-0.451163 0.043,-0.128995 0.119922,-0.259807 0.227415,-0.388808 0.214991,-0.21499 0.492314,-0.322782 0.836302,-0.322782 0.343985,0 0.63649,0.107782 0.87298,0.322782 0.236497,0.25799 0.352128,0.546827 0.352128,0.869314 -0.02151,0.128996 -0.05237,0.236789 -0.09536,0.322783 -0.04301,0.107488 -0.0969,0.203776 -0.161387,0.28977 -0.06449,0.107505 -0.141414,0.226796 -0.227414,0.355796 -0.107504,0.128995 -0.192268,0.279174 -0.25676,0.451163 -0.04301,0.150486 -0.0969,0.312187 -0.161388,0.484174 -0.086,0.193493 -0.151416,0.378209 -0.194403,0.550198 -0.06452,0.193493 -0.118405,0.386048 -0.161387,0.579543 z m 0.355796,-2.483229 c 0.107488,0 0.203777,-0.05388 0.289771,-0.161387 0.086,-0.128996 0.128375,-0.279177 0.128375,-0.451164 0.02151,-0.04301 0.02151,-0.0969 0,-0.161388 -0.02151,-0.06449 -0.05235,-0.129909 -0.09536,-0.194403 -0.086,-0.107488 -0.182275,-0.192268 -0.289771,-0.256759 -0.128996,-0.04298 -0.236791,-0.06602 -0.322784,-0.06602 -0.236482,0.02151 -0.375162,0.07539 -0.418151,0.161387 0.086,0.02151 0.201624,0.0639 0.352127,0.128392 0.171986,0.06451 0.291305,0.160767 0.355794,0.289771 0.04298,0.086 0.06604,0.193782 0.06604,0.322782 0,0.128996 -0.02302,0.236789 -0.06604,0.322783 l 0,0.06602 z"
         style="fill:#000000;fill-opacity:1;stroke:#ffffff;stroke-width:0.08060374;stroke-miterlimit:4;stroke-dasharray:none;stroke-opacity:1" />
      <path
         id="path4242"
         d="m -83.566102,-85.668649 0,-0.422786 -2.291933,0 0,0.422786 0.200266,0 c 0,0.103841 -0.02225,0.207681 -0.06676,0.311523 -0.04451,0.103841 -0.178014,0.155763 -0.400531,0.155763 l -0.711606,0 c -0.19285,-0.430201 -0.541461,-0.645301 -1.045834,-0.645301 -0.48954,0 -0.838151,0.2151 -1.045834,0.645301 l -0.403065,0 c -0.08901,0 -0.170596,-0.0073 -0.24477,-0.02225 -0.08902,-0.01483 -0.170597,-0.05192 -0.244769,-0.111261 -0.07417,-0.04451 -0.140929,-0.111261 -0.200266,-0.200267 -0.04451,-0.08901 -0.06676,-0.215101 -0.06676,-0.378281 l -0.05827,-2.854103 -1.781743,0 -0.02913,4.055702 c -0.0011,0.163176 0.04451,0.318941 0.13351,0.467287 0.05934,0.13351 0.148346,0.259604 0.267021,0.37828 0.118674,0.10384 0.244771,0.185431 0.378281,0.244769 0.148345,0.05934 0.304109,0.08901 0.467288,0.08901 l 1.626913,0 0,0.734309 0.912323,0 0,0.467288 c -0.118673,0.02967 -0.222517,0.08901 -0.311524,0.178014 l -1.312856,0 c -0.118673,-0.118672 -0.274439,-0.178014 -0.467286,-0.178014 -0.178015,0 -0.333779,0.05934 -0.467289,0.178014 -0.118672,0.118673 -0.185431,0.274439 -0.200266,0.467288 0,0.178014 0.06675,0.341193 0.200266,0.489538 0.118674,0.133512 0.274439,0.192849 0.467289,0.178015 0.163179,0 0.304106,-0.04451 0.422783,-0.13351 0.118672,-0.103852 0.200266,-0.229937 0.244769,-0.378281 l 0.934576,0 c 0.02967,0.133512 0.103841,0.259604 0.222517,0.378281 0.118673,0.10384 0.259604,0.148344 0.422784,0.13351 0.148346,0 0.281855,-0.04451 0.400532,-0.13351 0.118673,-0.103852 0.19285,-0.229937 0.222518,-0.378281 l 1.045835,0 c 0.02966,0.133512 0.103841,0.259604 0.222516,0.378281 0.118673,0.10384 0.267021,0.148344 0.445035,0.13351 0.178016,0 0.326361,-0.05934 0.445037,-0.178015 0.118672,-0.133509 0.185432,-0.296689 0.200266,-0.489538 0,-0.178014 -0.06676,-0.333777 -0.200266,-0.467288 -0.118673,-0.118672 -0.267021,-0.178014 -0.445037,-0.178014 -0.178014,0 -0.341193,0.05934 -0.489537,0.178014 l -1.379612,0 c -0.0445,-0.04451 -0.10384,-0.08158 -0.178014,-0.111261 l 0,-0.534042 0.979079,0 0,-0.734309 1.178892,0 c 0.237352,0 0.467288,-0.0445 0.689805,-0.13351 0.207685,-0.08902 0.393116,-0.200267 0.556294,-0.333777 0.16318,-0.133512 0.289275,-0.296692 0.378281,-0.48954 0.08902,-0.16318 0.133511,-0.326358 0.133511,-0.489539 l 0,-0.689805 z"
         style="fill:#000000;fill-opacity:1;stroke:#ffffff;stroke-width:0.10444929;stroke-miterlimit:4;stroke-dasharray:none;stroke-opacity:1"
         inkscape:connector-curvature="0"
         sodipodi:nodetypes="ccccccscscsccccccscccsccccccscccccccccccccccccsccccccscscscc" />
    </g>
  </g>
</svg>
