<?xml version="1.0" encoding="UTF-8" standalone="no"?>
<svg
   xmlns:dc="http://purl.org/dc/elements/1.1/"
   xmlns:cc="http://creativecommons.org/ns#"
   xmlns:rdf="http://www.w3.org/1999/02/22-rdf-syntax-ns#"
   xmlns:svg="http://www.w3.org/2000/svg"
   xmlns="http://www.w3.org/2000/svg"
   xmlns:sodipodi="http://sodipodi.sourceforge.net/DTD/sodipodi-0.dtd"
   xmlns:inkscape="http://www.inkscape.org/namespaces/inkscape"
   version="1.1"
   viewBox="0 -146 12 12"
   id="svg3433"
   inkscape:version="0.91 r13725"
   sodipodi:docname="water-non-potable.svg"
   width="12"
   height="12">
  <metadata
     id="metadata3443">
    <rdf:RDF>
      <cc:Work
         rdf:about="">
        <dc:format>image/svg+xml</dc:format>
        <dc:type
           rdf:resource="http://purl.org/dc/dcmitype/StillImage" />
        <dc:title />
      </cc:Work>
    </rdf:RDF>
  </metadata>
  <defs
     id="defs3441" />
  <sodipodi:namedview
     pagecolor="#ffffff"
     bordercolor="#666666"
     borderopacity="1"
     objecttolerance="10"
     gridtolerance="10"
     guidetolerance="10"
     inkscape:pageopacity="0"
     inkscape:pageshadow="2"
     inkscape:window-width="1152"
     inkscape:window-height="755"
     id="namedview3439"
     showgrid="true"
     inkscape:zoom="48.878756"
     inkscape:cx="3.406651"
     inkscape:cy="5.6935917"
     inkscape:window-x="0"
     inkscape:window-y="0"
     inkscape:window-maximized="0"
     inkscape:current-layer="g3435">
    <inkscape:grid
       type="xygrid"
       id="grid4249" />
  </sodipodi:namedview>
  <g
     transform="matrix(1,0,0,-1,92.484375,-227)"
     id="g3435">
    <g
       id="g4256"
       style="fill:#000000;fill-opacity:1;stroke:#ffffff;stroke-opacity:1;stroke-width:0.1;stroke-miterlimit:4;stroke-dasharray:none">
      <path
         inkscape:connector-curvature="0"
         id="path4246"
         d="m -84.426753,-85.436072 -0.07867,-0.355151 c -0.03952,-0.118574 -0.07255,-0.231772 -0.0989,-0.337168 -0.02636,-0.105399 -0.05938,-0.20449 -0.0989,-0.296708 -0.03952,-0.118574 -0.08442,-0.217655 -0.137115,-0.296709 -0.0527,-0.105399 -0.09984,-0.183319 -0.139363,-0.236017 -0.03954,-0.05271 -0.07255,-0.104647 -0.0989,-0.157345 -0.02634,-0.0527 -0.03821,-0.118752 -0.03821,-0.197805 0.01318,-0.105399 0.03209,-0.197426 0.05844,-0.276478 0.02635,-0.07905 0.07349,-0.159213 0.139363,-0.238266 0.131749,-0.131749 0.301696,-0.197805 0.512496,-0.197805 0.210798,0 0.390049,0.06605 0.534973,0.197805 0.144928,0.158099 0.215788,0.335102 0.215788,0.532726 -0.01318,0.07905 -0.03209,0.145107 -0.05844,0.197805 -0.02636,0.06587 -0.05938,0.124877 -0.0989,0.177575 -0.03952,0.06588 -0.08666,0.138983 -0.139362,0.218036 -0.06588,0.07905 -0.117824,0.171081 -0.157346,0.276478 -0.02636,0.09222 -0.05938,0.191312 -0.0989,0.296708 -0.0527,0.118575 -0.09279,0.231771 -0.119133,0.337168 -0.03954,0.118575 -0.07256,0.236575 -0.0989,0.355151 z m 0.218036,-1.521753 c 0.06587,0 0.124877,-0.03302 0.177575,-0.0989 0.0527,-0.07905 0.07867,-0.171083 0.07867,-0.276479 0.01318,-0.02636 0.01318,-0.05938 0,-0.0989 -0.01318,-0.03952 -0.03208,-0.07961 -0.05844,-0.119133 -0.0527,-0.06587 -0.1117,-0.117824 -0.177575,-0.157345 -0.07905,-0.02634 -0.145108,-0.04046 -0.197806,-0.04046 -0.144919,0.01318 -0.229904,0.0462 -0.256248,0.0989 0.0527,0.01318 0.123558,0.03916 0.215788,0.07868 0.105395,0.03953 0.178515,0.09852 0.218035,0.177575 0.02634,0.0527 0.04047,0.118752 0.04047,0.197805 0,0.07905 -0.01411,0.145107 -0.04047,0.197805 l 0,0.04046 z"
         style="fill:#000000;fill-opacity:1;stroke:#ffffff;stroke-opacity:1;stroke-width:0.1;stroke-miterlimit:4;stroke-dasharray:none" />
      <path
         id="path4242"
         d="m -83.5775,-84.944199 0,-0.326264 -1.768691,0 0,0.326264 0.154546,0 c 0,0.08013 -0.01717,0.160269 -0.05152,0.240404 -0.03434,0.08013 -0.137374,0.120202 -0.309092,0.120202 l -0.944446,0 c -0.148822,-0.331987 -0.417846,-0.49798 -0.807072,-0.49798 -0.377779,0 -0.646803,0.165993 -0.807072,0.49798 l -0.87576,0 c -0.06869,0 -0.13165,-0.0057 -0.188889,-0.01717 -0.06869,-0.01145 -0.13165,-0.04007 -0.188889,-0.08586 -0.05724,-0.03434 -0.108755,-0.08586 -0.154546,-0.154546 -0.03434,-0.06869 -0.05152,-0.165994 -0.05152,-0.29192 l -0.04497,-4.67456 -1.374975,0 -0.02248,5.601835 c -5.05e-4,0.125925 0.03434,0.246128 0.10303,0.360607 0.04579,0.10303 0.114479,0.200337 0.206061,0.291919 0.09158,0.08013 0.18889,0.143098 0.29192,0.18889 0.114478,0.04579 0.234681,0.06869 0.360607,0.06869 l 1.820205,0 0,0.566667 0.704042,0 0,0.360607 c -0.09158,0.0229 -0.171717,0.06869 -0.240404,0.137374 l -1.013134,0 c -0.09158,-0.09158 -0.211785,-0.137374 -0.360606,-0.137374 -0.137374,0 -0.257577,0.04579 -0.360607,0.137374 -0.09158,0.09158 -0.143098,0.211785 -0.154546,0.360607 0,0.137374 0.05151,0.2633 0.154546,0.377778 0.09158,0.103031 0.211785,0.148822 0.360607,0.137374 0.125926,0 0.23468,-0.03434 0.326263,-0.10303 0.09158,-0.08014 0.154546,-0.177442 0.188889,-0.29192 l 0.721214,0 c 0.0229,0.103031 0.08013,0.200337 0.171717,0.29192 0.09158,0.08013 0.200337,0.114478 0.326263,0.10303 0.114479,0 0.217509,-0.03434 0.309092,-0.10303 0.09158,-0.08014 0.148822,-0.177442 0.171717,-0.29192 l 0.807073,0 c 0.0229,0.103031 0.08013,0.200337 0.171717,0.29192 0.09158,0.08013 0.206061,0.114478 0.343435,0.10303 0.137374,0 0.251852,-0.04579 0.343435,-0.137374 0.09158,-0.10303 0.143098,-0.228956 0.154546,-0.377778 0,-0.137374 -0.05152,-0.257576 -0.154546,-0.360607 -0.09158,-0.09158 -0.206061,-0.137374 -0.343435,-0.137374 -0.137374,0 -0.2633,0.04579 -0.377778,0.137374 l -1.064649,0 c -0.03434,-0.03434 -0.08013,-0.06296 -0.137374,-0.08586 l 0,-0.412122 0.755557,0 0,-0.566667 1.305053,0 c 0.183165,0 0.360607,-0.03434 0.532324,-0.103031 0.16027,-0.06869 0.303368,-0.154546 0.429294,-0.257576 0.125926,-0.103031 0.223233,-0.228957 0.29192,-0.377779 0.06869,-0.125926 0.10303,-0.251852 0.10303,-0.377778 l 0,-0.532324 z"
         style="fill:#000000;fill-opacity:1;stroke:#ffffff;stroke-opacity:1;stroke-width:0.1;stroke-miterlimit:4;stroke-dasharray:none" />
      <path
         style="fill:#000000;fill-opacity:1;stroke:#ffffff;stroke-opacity:1;stroke-width:0.1;stroke-miterlimit:4;stroke-dasharray:none"
         d="M 6.0898438 6.828125 L 6.8808594 11.173828 L 9.4902344 11.173828 L 10.314453 6.828125 L 9.9550781 6.828125 L 9.2851562 10.847656 L 7.1035156 10.847656 L 6.4003906 6.828125 L 6.0898438 6.828125 z M 7.4980469 7.2402344 C 7.4408109 7.3089214 7.38954 7.3663194 7.34375 7.4121094 L 7.2070312 7.515625 C 7.1612372 7.549975 7.1161025 7.5683594 7.0703125 7.5683594 C 7.0245185 7.5683594 6.9774306 7.5561031 6.9316406 7.5332031 C 6.8973006 7.5103031 6.862465 7.4816056 6.828125 7.4472656 C 6.746432 7.1786626 7.5503584 10.506453 7.4277344 10.533203 L 8.9375 10.523438 C 9.053875 9.8733695 9.6184787 7.0987035 9.5429688 7.4296875 C 9.5086267 7.4640375 9.467665 7.492725 9.421875 7.515625 C 9.376081 7.549975 9.3309462 7.5683594 9.2851562 7.5683594 C 9.2393622 7.5683594 9.1922744 7.549965 9.1464844 7.515625 C 9.0892404 7.481285 9.0441056 7.4464494 9.0097656 7.4121094 C 8.9525296 7.3548704 8.9012587 7.2974744 8.8554688 7.2402344 C 8.8096787 7.3089214 8.7748431 7.3663194 8.7519531 7.4121094 L 8.6484375 7.515625 C 8.6140955 7.549975 8.5750869 7.5683594 8.5292969 7.5683594 C 8.4949549 7.5683594 8.4539931 7.549965 8.4082031 7.515625 C 8.3738621 7.492725 8.3409806 7.4640275 8.3066406 7.4296875 C 8.2608486 7.3838935 8.2198869 7.3387587 8.1855469 7.2929688 C 8.1397549 7.3387628 8.1007463 7.3838975 8.0664062 7.4296875 C 8.0435052 7.4525875 8.0086806 7.481285 7.9628906 7.515625 C 7.9170966 7.549975 7.8700087 7.5683594 7.8242188 7.5683594 C 7.7898767 7.5683594 7.7508681 7.549965 7.7050781 7.515625 L 7.6015625 7.4121094 L 7.4980469 7.2402344 z "
         transform="matrix(1,0,0,-1,-92.484375,-81)"
         id="path4240" />
      <path
         sodipodi:nodetypes="ccccccccccccc"
         inkscape:connector-curvature="0"
         id="path4251"
         d="m -86.377077,-87.250477 -0.547158,-0.547159 2.179306,-2.179304 -2.280573,-2.280571 0.518227,-0.518225 2.28057,2.280571 2.135906,-2.135906 0.547157,0.547159 -2.135905,2.135904 2.005707,2.005707 -0.518226,0.518225 -2.005706,-2.005707 z"
         style="fill:#000000;fill-opacity:1;fill-rule:evenodd;stroke:#ffffff;stroke-width:0.1;stroke-linecap:butt;stroke-linejoin:miter;stroke-miterlimit:4;stroke-dasharray:none;stroke-opacity:1;opacity:0.98" />
    </g>
  </g>
</svg>
