<?xml version="1.0" encoding="UTF-8" standalone="no"?>
<svg
   xmlns:dc="http://purl.org/dc/elements/1.1/"
   xmlns:cc="http://creativecommons.org/ns#"
   xmlns:rdf="http://www.w3.org/1999/02/22-rdf-syntax-ns#"
   xmlns:svg="http://www.w3.org/2000/svg"
   xmlns="http://www.w3.org/2000/svg"
   xmlns:sodipodi="http://sodipodi.sourceforge.net/DTD/sodipodi-0.dtd"
   xmlns:inkscape="http://www.inkscape.org/namespaces/inkscape"
   version="1.1"
   viewBox="0 -146 12 12"
   id="svg3433"
   inkscape:version="0.91 r13725"
   sodipodi:docname="water.svg"
   width="12"
   height="12">
  <metadata
     id="metadata3443">
    <rdf:RDF>
      <cc:Work
         rdf:about="">
        <dc:format>image/svg+xml</dc:format>
        <dc:type
           rdf:resource="http://purl.org/dc/dcmitype/StillImage" />
        <dc:title></dc:title>
      </cc:Work>
    </rdf:RDF>
  </metadata>
  <defs
     id="defs3441" />
  <sodipodi:namedview
     pagecolor="#ffffff"
     bordercolor="#666666"
     borderopacity="1"
     objecttolerance="10"
     gridtolerance="10"
     guidetolerance="10"
     inkscape:pageopacity="0"
     inkscape:pageshadow="2"
     inkscape:window-width="1152"
     inkscape:window-height="755"
     id="namedview3439"
     showgrid="true"
     inkscape:zoom="24.439378"
     inkscape:cx="3.6286202"
     inkscape:cy="6.0309123"
     inkscape:window-x="0"
     inkscape:window-y="0"
     inkscape:window-maximized="0"
     inkscape:current-layer="g3435">
    <inkscape:grid
       type="xygrid"
       id="grid4249" />
  </sodipodi:namedview>
  <g
     transform="matrix(1,0,0,-1,92.484375,-227)"
     id="g3435">
    <g
       id="g4256"
       transform="matrix(1.2406372,0,0,1.2406372,21.901203,19.576473)"
       style="stroke:#ffffff;stroke-opacity:1;stroke-width:0.08060374;stroke-miterlimit:4;stroke-dasharray:none">
      <path
         inkscape:connector-curvature="0"
         id="path4246"
         d="m -84.481455,-85.968316 -0.128375,-0.579543 c -0.06449,-0.193491 -0.118389,-0.37821 -0.161387,-0.550198 -0.04301,-0.171992 -0.0969,-0.333691 -0.161387,-0.484174 -0.06449,-0.193492 -0.137759,-0.355174 -0.223748,-0.484176 -0.086,-0.171993 -0.162921,-0.299144 -0.227415,-0.385138 -0.06452,-0.08601 -0.118389,-0.170765 -0.161387,-0.256759 -0.04298,-0.086 -0.06235,-0.193782 -0.06235,-0.322782 0.02151,-0.171993 0.05236,-0.322164 0.09536,-0.451163 0.043,-0.128995 0.119922,-0.259807 0.227415,-0.388808 0.214991,-0.21499 0.492314,-0.322782 0.836302,-0.322782 0.343985,0 0.63649,0.107782 0.87298,0.322782 0.236497,0.25799 0.352128,0.546827 0.352128,0.869314 -0.02151,0.128996 -0.05237,0.236789 -0.09536,0.322783 -0.04301,0.107488 -0.0969,0.203776 -0.161387,0.28977 -0.06449,0.107505 -0.141414,0.226796 -0.227414,0.355796 -0.107504,0.128995 -0.192268,0.279174 -0.25676,0.451163 -0.04301,0.150486 -0.0969,0.312187 -0.161388,0.484174 -0.086,0.193493 -0.151416,0.378209 -0.194403,0.550198 -0.06452,0.193493 -0.118405,0.386048 -0.161387,0.579543 z m 0.355796,-2.483229 c 0.107488,0 0.203777,-0.05388 0.289771,-0.161387 0.086,-0.128996 0.128375,-0.279177 0.128375,-0.451164 0.02151,-0.04301 0.02151,-0.0969 0,-0.161388 -0.02151,-0.06449 -0.05235,-0.129909 -0.09536,-0.194403 -0.086,-0.107488 -0.182275,-0.192268 -0.289771,-0.256759 -0.128996,-0.04298 -0.236791,-0.06602 -0.322784,-0.06602 -0.236482,0.02151 -0.375162,0.07539 -0.418151,0.161387 0.086,0.02151 0.201624,0.0639 0.352127,0.128392 0.171986,0.06451 0.291305,0.160767 0.355794,0.289771 0.04298,0.086 0.06604,0.193782 0.06604,0.322782 0,0.128996 -0.02302,0.236789 -0.06604,0.322783 l 0,0.06602 z"
         style="fill:#000000;fill-opacity:1;stroke:#ffffff;stroke-width:0.08060374;stroke-miterlimit:4;stroke-dasharray:none;stroke-opacity:1" />
      <path
         id="path4242"
         d="m -83.5775,-84.944199 0,-0.326264 -1.768691,0 0,0.326264 0.154546,0 c 0,0.08013 -0.01717,0.160269 -0.05152,0.240404 -0.03434,0.08013 -0.137374,0.120202 -0.309092,0.120202 l -0.944446,0 c -0.148822,-0.331987 -0.417846,-0.49798 -0.807072,-0.49798 -0.377779,0 -0.646803,0.165993 -0.807072,0.49798 l -0.87576,0 c -0.06869,0 -0.13165,-0.0057 -0.188889,-0.01717 -0.06869,-0.01145 -0.13165,-0.04007 -0.188889,-0.08586 -0.05724,-0.03434 -0.108755,-0.08586 -0.154546,-0.154546 -0.03434,-0.06869 -0.05152,-0.165994 -0.05152,-0.29192 l -0.04497,-4.67456 -1.374975,0 -0.02248,5.601835 c -5.05e-4,0.125925 0.03434,0.246128 0.10303,0.360607 0.04579,0.10303 0.114479,0.200337 0.206061,0.291919 0.09158,0.08013 0.18889,0.143098 0.29192,0.18889 0.114478,0.04579 0.234681,0.06869 0.360607,0.06869 l 1.820205,0 0,0.566667 0.704042,0 0,0.360607 c -0.09158,0.0229 -0.171717,0.06869 -0.240404,0.137374 l -1.013134,0 c -0.09158,-0.09158 -0.211785,-0.137374 -0.360606,-0.137374 -0.137374,0 -0.257577,0.04579 -0.360607,0.137374 -0.09158,0.09158 -0.143098,0.211785 -0.154546,0.360607 0,0.137374 0.05151,0.2633 0.154546,0.377778 0.09158,0.103031 0.211785,0.148822 0.360607,0.137374 0.125926,0 0.23468,-0.03434 0.326263,-0.10303 0.09158,-0.08014 0.154546,-0.177442 0.188889,-0.29192 l 0.721214,0 c 0.0229,0.103031 0.08013,0.200337 0.171717,0.29192 0.09158,0.08013 0.200337,0.114478 0.326263,0.10303 0.114479,0 0.217509,-0.03434 0.309092,-0.10303 0.09158,-0.08014 0.148822,-0.177442 0.171717,-0.29192 l 0.807073,0 c 0.0229,0.103031 0.08013,0.200337 0.171717,0.29192 0.09158,0.08013 0.206061,0.114478 0.343435,0.10303 0.137374,0 0.251852,-0.04579 0.343435,-0.137374 0.09158,-0.10303 0.143098,-0.228956 0.154546,-0.377778 0,-0.137374 -0.05152,-0.257576 -0.154546,-0.360607 -0.09158,-0.09158 -0.206061,-0.137374 -0.343435,-0.137374 -0.137374,0 -0.2633,0.04579 -0.377778,0.137374 l -1.064649,0 c -0.03434,-0.03434 -0.08013,-0.06296 -0.137374,-0.08586 l 0,-0.412122 0.755557,0 0,-0.566667 1.305053,0 c 0.183165,0 0.360607,-0.03434 0.532324,-0.103031 0.16027,-0.06869 0.303368,-0.154546 0.429294,-0.257576 0.125926,-0.103031 0.223233,-0.228957 0.29192,-0.377779 0.06869,-0.125926 0.10303,-0.251852 0.10303,-0.377778 l 0,-0.532324 z"
         style="fill:#000000;fill-opacity:1;stroke:#ffffff;stroke-width:0.08060374;stroke-miterlimit:4;stroke-dasharray:none;stroke-opacity:1"
         inkscape:connector-curvature="0" />
    </g>
  </g>
</svg>
