<?xml version="1.0" encoding="UTF-8" standalone="no"?>
<!-- Created with Inkscape (http://www.inkscape.org/) -->

<svg
   xmlns:dc="http://purl.org/dc/elements/1.1/"
   xmlns:cc="http://creativecommons.org/ns#"
   xmlns:rdf="http://www.w3.org/1999/02/22-rdf-syntax-ns#"
   xmlns:svg="http://www.w3.org/2000/svg"
   xmlns="http://www.w3.org/2000/svg"
   xmlns:sodipodi="http://sodipodi.sourceforge.net/DTD/sodipodi-0.dtd"
   xmlns:inkscape="http://www.inkscape.org/namespaces/inkscape"
   width="12"
   height="12"
   viewBox="0 0 12 12"
   id="svg4140"
   version="1.1"
   inkscape:version="0.91 r13725"
   sodipodi:docname="dish.svg">
  <defs
     id="defs4142" />
  <sodipodi:namedview
     id="base"
     pagecolor="#ffffff"
     bordercolor="#666666"
     borderopacity="1.0"
     inkscape:pageopacity="0.0"
     inkscape:pageshadow="2"
     inkscape:zoom="22.627417"
     inkscape:cx="-0.67030871"
     inkscape:cy="6.48961"
     inkscape:document-units="px"
     inkscape:current-layer="layer1"
     showgrid="false"
     units="px"
     inkscape:showpageshadow="false"
     inkscape:window-width="1243"
     inkscape:window-height="755"
     inkscape:window-x="0"
     inkscape:window-y="0"
     inkscape:window-maximized="1">
    <inkscape:grid
       type="xygrid"
       id="grid4688" />
  </sodipodi:namedview>
  <metadata
     id="metadata4145">
    <rdf:RDF>
      <cc:Work
         rdf:about="">
        <dc:format>image/svg+xml</dc:format>
        <dc:type
           rdf:resource="http://purl.org/dc/dcmitype/StillImage" />
        <dc:title />
      </cc:Work>
    </rdf:RDF>
  </metadata>
  <g
     inkscape:label="Layer 1"
     inkscape:groupmode="layer"
     id="layer1"
     transform="translate(0,-1040.3622)">
    <g
       id="g4139"
       transform="matrix(0.85064583,0,0,0.85064583,-0.69762097,158.04221)"
       style="stroke:#ffffff;stroke-opacity:1;stroke-width:0.11755774;stroke-miterlimit:4;stroke-dasharray:none">
      <path
         transform="translate(0,1036.3622)"
         sodipodi:nodetypes="cccccccccccccsc"
         inkscape:connector-curvature="0"
         id="path4698"
         d="M 12.477253,1.8377379 7.9140625,5.7792969 7.1660156,4.9726562 6.5546875,5.5625 7.265625,6.3398438 2.8794417,10.174556 c 2.9849741,1.778478 6.3275895,0.157475 6.3275895,0.157475 l -0.05884,0.300877 -2.1794428,2.320217 0.015625,1.0625 5.4687516,-0.03125 0.01563,-1 -1.782591,-2.419654 c 0,0 -0.0036,-0.616332 -0.01046,-0.7275596 -0.05875,-0.958278 3.317531,-2.9616787 1.801549,-7.9994235 z"
         style="fill:#000000;fill-opacity:1;stroke:#ffffff;stroke-width:0.11755774;stroke-linecap:round;stroke-linejoin:round;stroke-miterlimit:4;stroke-dasharray:none;stroke-opacity:1" />
      <g
         transform="matrix(0.75547661,-0.65517562,0.65517562,0.75547661,-680.07781,261.75761)"
         inkscape:label="Layer 1"
         id="layer1-5"
         style="stroke:#ffffff;stroke-opacity:1;stroke-width:0.11755774;stroke-miterlimit:4;stroke-dasharray:none">
        <g
           id="g4810"
           style="stroke:#ffffff;stroke-opacity:1;stroke-width:0.11755774;stroke-miterlimit:4;stroke-dasharray:none">
          <path
             inkscape:connector-curvature="0"
             id="path4759"
             d="m 8.0312499,1037.6722 a 2,2 0 0 0 -2,2 l 0.5898438,0 a 1.4099464,1.4724464 0 0 1 1.4101562,-1.4726 1.4099464,1.4724464 0 0 1 1.4101562,1.4726 l 0.5898439,0 a 2,2 0 0 0 -2.0000001,-2 z"
             style="fill:#000000;fill-opacity:1;stroke:#ffffff;stroke-width:0.11755774;stroke-linecap:round;stroke-linejoin:round;stroke-miterlimit:4;stroke-dasharray:none;stroke-opacity:1" />
          <path
             sodipodi:nodetypes="scccccs"
             style="fill:#000000;fill-opacity:1;stroke:#ffffff;stroke-width:0.11755774;stroke-linecap:round;stroke-linejoin:round;stroke-miterlimit:4;stroke-dasharray:none;stroke-opacity:1"
             d="m 8.0643954,1036.8614 c -1.6290088,0 -3.0158635,0.9316 -3.0158314,2.8518 l 0.4622234,0 c 0,-1.6699 1.2961846,-2.3912 2.553608,-2.3909 1.2187336,-3e-4 2.5344226,0.721 2.5342636,2.3909 l 0.415277,0 c 3.3e-5,-1.9202 -1.3205319,-2.8518 -2.9495406,-2.8518 z"
             id="path4776"
             inkscape:connector-curvature="0" />
        </g>
      </g>
    </g>
  </g>
</svg>
