<?xml version="1.0" encoding="UTF-8" standalone="no"?>
<!-- Created with Inkscape (http://www.inkscape.org/) -->

<svg
   xmlns:dc="http://purl.org/dc/elements/1.1/"
   xmlns:cc="http://creativecommons.org/ns#"
   xmlns:rdf="http://www.w3.org/1999/02/22-rdf-syntax-ns#"
   xmlns:svg="http://www.w3.org/2000/svg"
   xmlns="http://www.w3.org/2000/svg"
   xmlns:sodipodi="http://sodipodi.sourceforge.net/DTD/sodipodi-0.dtd"
   xmlns:inkscape="http://www.inkscape.org/namespaces/inkscape"
   width="12"
   height="12"
   viewBox="0 0 12 12"
   id="svg4140"
   version="1.1"
   inkscape:version="0.91 r13725"
   sodipodi:docname="tower.svg">
  <defs
     id="defs4142" />
  <sodipodi:namedview
     id="base"
     pagecolor="#ffffff"
     bordercolor="#666666"
     borderopacity="1.0"
     inkscape:pageopacity="0.0"
     inkscape:pageshadow="2"
     inkscape:zoom="22.627417"
     inkscape:cx="0.75367265"
     inkscape:cy="6.7558325"
     inkscape:document-units="px"
     inkscape:current-layer="layer1"
     showgrid="false"
     units="px"
     inkscape:showpageshadow="false"
     inkscape:window-width="1243"
     inkscape:window-height="755"
     inkscape:window-x="0"
     inkscape:window-y="0"
     inkscape:window-maximized="1"
     showguides="true">
    <inkscape:grid
       type="xygrid"
       id="grid4688" />
  </sodipodi:namedview>
  <metadata
     id="metadata4145">
    <rdf:RDF>
      <cc:Work
         rdf:about="">
        <dc:format>image/svg+xml</dc:format>
        <dc:type
           rdf:resource="http://purl.org/dc/dcmitype/StillImage" />
        <dc:title />
      </cc:Work>
    </rdf:RDF>
  </metadata>
  <g
     inkscape:label="Layer 1"
     inkscape:groupmode="layer"
     id="layer1"
     transform="translate(0,-1040.3622)">
    <g
       id="g4138"
       transform="matrix(0.76155085,0,0,0.76155085,0.10834933,251.10325)"
       style="fill:#000000;fill-opacity:1;stroke:#ffffff;stroke-opacity:1;stroke-width:0.131311;stroke-miterlimit:4;stroke-dasharray:none">
      <path
         sodipodi:nodetypes="cccccccccccccc"
         inkscape:connector-curvature="0"
         id="path4752"
         d="m 7.1914062,1040.6582 -1.6777343,11.1875 1.0177308,0 0.5410156,-3.0305 1.9236755,0 0.5410156,3.0305 1.0117186,0 -1.6777342,-11.1875 z m 0.7521059,1.4083 0.150238,0 0.4414063,2.8723 -1.0447692,0 z"
         style="fill:#000000;fill-opacity:1;fill-rule:evenodd;stroke:#ffffff;stroke-width:0.131311;stroke-linecap:butt;stroke-linejoin:miter;stroke-miterlimit:4;stroke-dasharray:none;stroke-opacity:1" />
      <path
         inkscape:connector-curvature="0"
         id="path4754"
         d="m 7.2687499,1040.337 1.525,0 0,-1.525 -1.525,0 z"
         style="fill:#000000;fill-opacity:1;fill-rule:evenodd;stroke:#ffffff;stroke-width:0.131311;stroke-linecap:butt;stroke-linejoin:miter;stroke-miterlimit:4;stroke-dasharray:none;stroke-opacity:1" />
      <g
         id="g4810"
         style="fill:#000000;fill-opacity:1;stroke:#ffffff;stroke-opacity:1;stroke-width:0.131311;stroke-miterlimit:4;stroke-dasharray:none">
        <path
           sodipodi:nodetypes="scccccsscccccs"
           inkscape:connector-curvature="0"
           id="path4759"
           transform="translate(0,1036.3622)"
           d="m 8.0644531,0.328125 c -1.6290088,0 -3.1640946,1.1032375 -3.1640625,3.0234375 l 0.6113282,0 c 0,-1.6699 1.2953109,-2.390925 2.5527343,-2.390625 1.2187336,-3e-4 2.5353149,0.720725 2.5351559,2.390625 l 0.690277,0 C 11.289919,1.4313625 9.6934618,0.328125 8.0644531,0.328125 Z M 8.03125,1.1386719 c -1.1045695,0 -2.1484375,1.0673055 -2.1484375,2.171875 l 0.7382813,0 C 6.6209828,2.4971697 7.2523977,1.8377696 8.03125,1.8378906 8.8101023,1.8377696 9.4415172,2.4971697 9.4414062,3.3105469 l 0.7555718,0 c 0,-1.1045695 -1.0611585,-2.171875 -2.165728,-2.171875 z"
           style="fill:#000000;fill-opacity:1;stroke:#ffffff;stroke-width:0.131311;stroke-linecap:round;stroke-linejoin:round;stroke-miterlimit:4;stroke-dasharray:none;stroke-opacity:1" />
      </g>
    </g>
  </g>
</svg>
