<?xml version="1.0" encoding="UTF-8" standalone="no"?>
<svg
   xmlns:dc="http://purl.org/dc/elements/1.1/"
   xmlns:cc="http://creativecommons.org/ns#"
   xmlns:rdf="http://www.w3.org/1999/02/22-rdf-syntax-ns#"
   xmlns:svg="http://www.w3.org/2000/svg"
   xmlns="http://www.w3.org/2000/svg"
   xmlns:sodipodi="http://sodipodi.sourceforge.net/DTD/sodipodi-0.dtd"
   xmlns:inkscape="http://www.inkscape.org/namespaces/inkscape"
   id="svg4764"
   height="12"
   width="12"
   version="1.1"
   inkscape:version="0.91 r13725"
   sodipodi:docname="access point.svg">
  <sodipodi:namedview
     pagecolor="#ffffff"
     bordercolor="#666666"
     borderopacity="1"
     objecttolerance="10"
     gridtolerance="10"
     guidetolerance="10"
     inkscape:pageopacity="0"
     inkscape:pageshadow="2"
     inkscape:window-width="1114"
     inkscape:window-height="744"
     id="namedview8"
     showgrid="false"
     inkscape:zoom="19.666667"
     inkscape:cx="5.3389831"
     inkscape:cy="6"
     inkscape:window-x="0"
     inkscape:window-y="0"
     inkscape:window-maximized="0"
     inkscape:current-layer="svg4764" />
  <defs
     id="defs4766" />
  <metadata
     id="metadata4769">
    <rdf:RDF>
      <cc:Work
         rdf:about="">
        <dc:format>image/svg+xml</dc:format>
        <dc:type
           rdf:resource="http://purl.org/dc/dcmitype/StillImage" />
        <dc:title />
      </cc:Work>
    </rdf:RDF>
  </metadata>
  <path
     id="path4166"
     d="M 8.6786164,3.4708728 A 2.5288878,2.5288878 0 0 0 6.1494892,6.0000001 2.5288878,2.5288878 0 0 0 8.6786164,8.5291272 2.5288878,2.5288878 0 0 0 11.207743,6.0000001 2.5288878,2.5288878 0 0 0 8.6786164,3.4708728 Z m 0,0.8830751 A 1.6459385,1.6459385 0 0 1 10.324669,6.0000001 1.6459385,1.6459385 0 0 1 8.6786164,7.6460523 1.6459385,1.6459385 0 0 1 7.0325642,6.0000001 1.6459385,1.6459385 0 0 1 8.6786164,4.3539479 Z"
     style="fill:#000000;fill-opacity:1;stroke:#ffffff;stroke-width:0.001;stroke-linecap:round;stroke-linejoin:round;stroke-miterlimit:4;stroke-dasharray:none;stroke-opacity:1" />
  <path
     style="fill:#000000;fill-opacity:1;fill-rule:evenodd;stroke:#ffffff;stroke-width:0.001;stroke-linecap:butt;stroke-linejoin:miter;stroke-opacity:1;stroke-miterlimit:4;stroke-dasharray:none"
     d="m 0.66002213,5.0251253 -1e-6,1.9198162 2.93360357,-2e-7 0,0.9828572 2.1765479,-1.927799 -2.1765468,-1.927798 0,0.9529238 z"
     id="path4196" />
</svg>
