<?xml version="1.0" encoding="UTF-8" standalone="no"?>
<!-- Created with Inkscape (http://www.inkscape.org/) -->

<svg
   xmlns:dc="http://purl.org/dc/elements/1.1/"
   xmlns:cc="http://creativecommons.org/ns#"
   xmlns:rdf="http://www.w3.org/1999/02/22-rdf-syntax-ns#"
   xmlns:svg="http://www.w3.org/2000/svg"
   xmlns="http://www.w3.org/2000/svg"
   xmlns:sodipodi="http://sodipodi.sourceforge.net/DTD/sodipodi-0.dtd"
   xmlns:inkscape="http://www.inkscape.org/namespaces/inkscape"
   width="12"
   height="12"
   viewBox="0 0 12 12"
   id="svg2"
   version="1.1"
   inkscape:version="0.91 r13725"
   sodipodi:docname="hydrant.svg">
  <defs
     id="defs4" />
  <sodipodi:namedview
     id="base"
     pagecolor="#ffffff"
     bordercolor="#666666"
     borderopacity="1.0"
     inkscape:pageopacity="0.0"
     inkscape:pageshadow="2"
     inkscape:zoom="31.678384"
     inkscape:cx="7.4551396"
     inkscape:cy="6.5063264"
     inkscape:document-units="px"
     inkscape:current-layer="layer1"
     showgrid="false"
     units="px"
     inkscape:showpageshadow="false"
     inkscape:window-width="1243"
     inkscape:window-height="755"
     inkscape:window-x="0"
     inkscape:window-y="0"
     inkscape:window-maximized="1" />
  <metadata
     id="metadata7">
    <rdf:RDF>
      <cc:Work
         rdf:about="">
        <dc:format>image/svg+xml</dc:format>
        <dc:type
           rdf:resource="http://purl.org/dc/dcmitype/StillImage" />
        <dc:title></dc:title>
      </cc:Work>
    </rdf:RDF>
  </metadata>
  <g
     inkscape:label="Layer 1"
     inkscape:groupmode="layer"
     id="layer1"
     transform="translate(0,-1040.3622)">
    <path
       style="fill:#000000;fill-opacity:1;fill-rule:evenodd;stroke:#ffffff;stroke-width:0.10668256;stroke-linecap:butt;stroke-linejoin:miter;stroke-miterlimit:4;stroke-dasharray:none;stroke-opacity:1"
       d="m 5.7421875,1040.5941 0,0.336 c 0,0 -0.8069196,-0.014 -1.6328125,1.2129 l 0,0.707 c 0,0 -0.645233,0.082 -0.7851562,0.2695 -0.087137,0.1171 -0.078063,0.3142 0,0.4375 0.1262079,0.1994 0.7519531,0.2364 0.7519531,0.2364 l 0,1.1093 c -1.091042,0.4403 -1.3359375,0.8203 -1.3359375,0.8203 l -0.3828125,0 0,0.5489 0.4160156,0 c 0,0 0.1267504,0.2994 1.3359375,0.832 l 0,3.3906 c 0,0 -0.568674,0.1548 -0.7402344,0.3711 -0.1505688,0.1899 -0.1699218,0.7071 -0.1699218,0.7071 0,0 0.587372,0.4848 0.9433594,0.5058 1.2666109,0.075 2.4967316,0.063 3.7148437,0 0.3560622,-0.018 0.9433594,-0.5058 0.9433594,-0.5058 0,0 -0.019353,-0.5172 -0.1699219,-0.7071 -0.1715603,-0.2163 -0.7402344,-0.3711 -0.7402344,-0.3711 l 0,-3.3906 c 1.2091871,-0.5326 1.3359375,-0.832 1.3359375,-0.832 l 0.4160157,0 0,-0.5489 -0.3828126,0 c 0,0 -0.2448954,-0.38 -1.3359374,-0.8203 l 0,-1.1093 c 0,0 0.6257452,-0.037 0.7519531,-0.2364 0.078063,-0.1233 0.087137,-0.3204 0,-0.4375 C 8.5358581,1042.9319 7.890625,1042.85 7.890625,1042.85 l 0,-0.707 c -0.8258929,-1.2269 -1.6328125,-1.2129 -1.6328125,-1.2129 l 0,-0.336 z m -0.9492188,3.3203 2.414062,0 c 0.07487,0 0.07487,0.2247 0,0.2247 l -2.414062,0 c -0.07487,0 -0.07487,-0.2247 0,-0.2247 z m -0.2167969,1.0938 c 0.9385286,0.054 1.006192,1.823 0.033203,1.959 0,0 0.6202111,-0.4124 0.591797,-1.0098 -0.031457,-0.6613 -0.625,-0.9492 -0.6249999,-0.9492 z m 2.8476563,0 c 0,0 -0.593543,0.2879 -0.625,0.9492 -0.028414,0.5974 0.5917969,1.0098 0.5917969,1.0098 -0.9729891,-0.136 -0.9053254,-1.905 0.033203,-1.959 z m -2.640625,5.6035 c 1.1536145,0.4587 1.3930662,0.3319 2.4335942,0 -0.8912763,0.5503 -1.4724965,0.4911 -2.4335942,0 z"
       id="path4236"
       inkscape:connector-curvature="0"
       sodipodi:nodetypes="ccccccccccccccccssccccccccccccccccccccccccsccsccccc" />
  </g>
</svg>
