<?xml version="1.0" encoding="UTF-8" standalone="no"?>
<svg
   xmlns:dc="http://purl.org/dc/elements/1.1/"
   xmlns:cc="http://creativecommons.org/ns#"
   xmlns:rdf="http://www.w3.org/1999/02/22-rdf-syntax-ns#"
   xmlns:svg="http://www.w3.org/2000/svg"
   xmlns="http://www.w3.org/2000/svg"
   xmlns:sodipodi="http://sodipodi.sourceforge.net/DTD/sodipodi-0.dtd"
   xmlns:inkscape="http://www.inkscape.org/namespaces/inkscape"
   version="1.1"
   viewBox="0 -146 12 12"
   id="svg2"
   inkscape:version="0.91 r13725"
   sodipodi:docname="medical rescue.svg"
   width="12"
   height="12">
  <metadata
     id="metadata12">
    <rdf:RDF>
      <cc:Work
         rdf:about="">
        <dc:format>image/svg+xml</dc:format>
        <dc:type
           rdf:resource="http://purl.org/dc/dcmitype/StillImage" />
        <dc:title />
      </cc:Work>
    </rdf:RDF>
  </metadata>
  <defs
     id="defs10" />
  <sodipodi:namedview
     pagecolor="#ffffff"
     bordercolor="#666666"
     borderopacity="1"
     objecttolerance="10"
     gridtolerance="10"
     guidetolerance="10"
     inkscape:pageopacity="0"
     inkscape:pageshadow="2"
     inkscape:window-width="1107"
     inkscape:window-height="695"
     id="namedview8"
     showgrid="false"
     inkscape:zoom="32"
     inkscape:cx="2.5795223"
     inkscape:cy="4.8283379"
     inkscape:window-x="0"
     inkscape:window-y="0"
     inkscape:window-maximized="0"
     inkscape:current-layer="svg2" />
  <path
     style="fill:currentColor;stroke:#ffffff;stroke-width:0.1;stroke-miterlimit:4;stroke-dasharray:none;stroke-opacity:1"
     d="m 5.934747,-145.43631 0,0.032 c -0.5563549,0.0124 -0.8783622,0.0898 -0.9016181,0.60234 -0.018793,0.41415 0.041564,0.77104 0.5835107,0.86209 l -0.013176,0.35575 c -0.301083,0 -1.5735667,-0.42364 -2.0855801,-0.80562 l -0.6719785,-0.5007 c -0.444848,-0.33188 -1.750744,0.10554 -2.68226692,1.68465 -0.0395998,0.0672 -0.0355714,0.10617 0,0.13553 0.23866192,0.19696 0.93549942,-0.13553 0.93549942,-0.13553 0.1577555,-0.0228 -0.12421,0.19011 -0.062116,0.19011 l 0.154348,0 c 0.1580263,0 0.5326439,-0.0186 0.5383357,0 0.00966,0.0316 -0.060233,0.0809 -0.060233,0.0809 -0.087295,0.11432 0.7299108,-0.20035 0.6343325,-0.0809 l -0.154348,0.19012 c -0.1232857,0.15405 0.3247881,-0.0388 0.4536325,-0.0546 l 0.1807001,0 0,0.0546 -0.092232,0.0828 c -0.3002165,0.27226 0.647344,0.15505 0.9656162,0.13552 0.2009616,-0.0123 -0.00896,0.11672 0,0.16564 0.024469,0.13287 0.5421002,-0.1317 0.5421002,0 0,0 -0.039388,0.11105 0,0.13553 0.1753041,0.10892 0.5703347,-0.24658 0.5703346,-0.24658 l 0,0.16376 -0.056469,0.0828 0.056469,0.0546 c 0,0 0.3408343,-0.28324 0.4856315,-0.19011 0.054933,0.0354 -0.056456,0.15705 0,0.19011 0.1116505,0.0654 0.3006792,-0.1576 0.3482241,-0.17128 0,0 -0.010542,2.04959 -0.041411,2.62768 -1.9469985,-0.27308 -2.5574292,-0.56379 -2.5862699,-1.1275 -0.021135,-0.41311 0.3342512,-0.34634 0.5326888,-0.34634 l 0.088468,0 c 0.3412273,-0.0365 0.6081014,0.58814 1.0070264,0.68892 0.1033248,0.0261 0.3199898,-0.032 0.3199898,-0.032 0,0 -0.1275783,-0.11729 -0.154348,-0.19387 -0.043195,-0.17235 0.072774,-0.21445 0.092232,-0.21647 0.1596463,-0.0166 0.4643978,-0.0567 0.4141043,-0.13552 l -0.1750531,-0.27294 c -0.240864,-0.30949 -0.5677836,-0.40092 -0.9166764,-0.40092 -0.3735799,0 -0.8045871,-0.15035 -1.1199641,-0.0621 -0.5453895,0.15252 -0.9220367,0.44462 -0.9147942,0.95432 0.022204,1.56276 2.8795311,1.70271 3.0191973,1.71289 -0.4296663,0.0272 -0.8625786,0.2759 -0.9505578,1.03526 -0.077995,0.67315 0.9637338,1.03714 0.9637338,1.03714 -0.1119917,0.0359 -0.4355433,0.0933 -0.8169149,0.51199 -0.1998264,0.20226 -0.1268197,0.5906 -0.015058,0.72844 0.4536411,0.55951 0.9599692,0.66445 0.9599692,0.66445 0,0 -0.8692267,0.39085 -0.5948045,0.4574 0.3117062,0.0757 1.0559662,-0.17505 1.0559662,-0.17505 0,0 -0.033308,0.66266 0.2032875,0.67198 0.00752,2.9e-4 0.00229,-0.0197 0.00942,-0.0207 l 0,-0.0263 c 0.1880296,-0.0856 0.1637595,-0.65504 0.1637595,-0.65504 -1e-7,0 0.7442596,0.2507 1.055966,0.17505 0.2744219,-0.0665 -0.5948044,-0.4574 -0.5948044,-0.4574 0,0 0.5063278,-0.10494 0.9599692,-0.66445 0.1117603,-0.13784 0.1828861,-0.52617 -0.016941,-0.72844 -0.3813714,-0.4187 -0.7030413,-0.47614 -0.8150326,-0.51199 0,0 1.0398416,-0.36399 0.9618515,-1.03714 -0.087979,-0.75935 -0.5190089,-1.00808 -0.9486754,-1.03526 0.1396666,-0.0102 2.9951119,-0.15012 3.0173149,-1.71289 0.0072,-0.5097 -0.367523,-0.8018 -0.9129119,-0.95432 -0.3153777,-0.0882 -0.7463838,0.0621 -1.1199641,0.0621 -0.3488926,0 -0.6776944,0.0914 -0.9185588,0.40092 l -0.1731751,0.27293 c -0.050293,0.0788 0.252576,0.11895 0.4122221,0.13552 0.019458,0.002 0.135423,0.0441 0.092232,0.21647 -0.02677,0.0766 -0.1524656,0.19387 -0.1524656,0.19387 0,0 0.2166645,0.0581 0.3199897,0.032 0.3989252,-0.10077 0.6657993,-0.72544 1.0070265,-0.68892 l 0.088468,0 c 0.1984379,0 0.5519422,-0.0668 0.5308064,0.34635 -0.02884,0.5637 -0.6392712,0.85442 -2.58627,1.12749 -0.030872,-0.57809 -0.04141,-2.62768 -0.04141,-2.62768 0.047545,0.0137 0.2384555,0.23673 0.3501063,0.17129 0.056451,-0.0331 -0.054935,-0.15474 0,-0.19011 0.1447964,-0.0931 0.4837492,0.19011 0.4837492,0.19011 l 0.058351,-0.0546 -0.058351,-0.0828 0,-0.16376 c 0,0 0.3969127,0.3555 0.5722169,0.24658 0.039383,-0.0245 0,-0.13552 0,-0.13552 0,-0.13171 0.5176311,0.13287 0.5421003,0 0.00901,-0.0489 -0.2009613,-0.17798 0,-0.16565 0.3182726,0.0195 1.2658331,0.13674 0.965616,-0.13552 l -0.092232,-0.0828 0,-0.0546 0.1807001,0 c 0.1288444,0.0158 0.575037,0.20864 0.451751,0.0546 l -0.1524666,-0.19011 c -0.095577,-0.11942 0.7216276,0.19525 0.6343326,0.0809 0,0 -0.07177,-0.0493 -0.06211,-0.0809 0.0057,-0.0186 0.382192,0 0.540217,0 l 0.154349,0 c 0.06209,0 -0.219871,-0.21296 -0.06211,-0.19011 0,0 0.694955,0.33248 0.933616,0.13552 0.03557,-0.0293 0.0396,-0.0684 0,-0.13552 -0.931528,-1.57912 -2.2374242,-2.01654 -2.6822721,-1.68466 l -0.6700961,0.50069 c -0.5120135,0.38198 -1.7844978,0.82445 -2.0855802,0.82445 l -0.013176,-0.37458 c 0.5419491,-0.091 0.6023015,-0.44793 0.5835107,-0.86209 -0.023998,-0.52889 -0.3606967,-0.59554 -0.9505578,-0.60421 z m 0.372694,6.68025 c 0.5620209,0.0728 0.7472701,0.28905 0.7472701,0.65316 7.197e-4,0.19545 -0.3747956,0.4612 -0.7472701,0.45928 -0.025949,-0.35526 0,-1.11244 0,-1.11244 z m -0.6983306,0.0301 c 0,0 0.025944,0.75717 0,1.11243 -0.3724754,0.002 -0.74799,-0.26382 -0.7472701,-0.45928 0,-0.3641 0.1852485,-0.58035 0.7472701,-0.65315 z m 0.6042159,1.93499 c 0.2207947,0.0182 0.6076273,0.21002 0.6908014,0.5741 -0.00289,0.33209 -0.2924912,0.46554 -0.6738608,0.48375 z m -0.508219,0.0301 -0.01694,1.05785 c -0.3813696,-0.0182 -0.6709752,-0.15167 -0.6738607,-0.48375 0.08317,-0.36408 0.4700071,-0.55587 0.6908014,-0.5741 z"
     id="path4937"
     inkscape:connector-curvature="0"
     sodipodi:nodetypes="ccscccccscssccccccccccccccccccccsscccccccscscsccscccccccccsccscscscccccccssccccccccccccccccccccsscscccccsccccccccccccccccc" />
</svg>
